<svg xmlns="http://www.w3.org/2000/svg" width="592pt" height="572pt" viewBox="0 0 592 572">
  <path fill="#fff" stroke="#fff" stroke-width=".1" d="M0 0h592v572H0V0m304 23c-14 1-33-4-44 1-6-1-6 3-4 7-4 0-7-4-11-5 2 4-2 5-2 0-11-3-26-5-35-3l-16 1c-6 0-7 8-9 13h-2c-2-4-7-8-12-6-1-1-4-1-4 1h-1l-5 1c-2-4-7 3-10 1-1-4 4-3 3-7-10 0-19 2-29 4 1 4 4 6-2 5-1 6 9 3 7 10l-5 9c-3 4-3 9-5 14-4 2-9-1-13-2-6 2-15 0-14-7-1-5 2-11 1-16 1-3 5-10-3-7-14 6-32 4-41 18-12 6-13 21-17 32-3 5 6 18 9 9 1 0 3-2 3 0 2 5 13-7 10-1-3 4-7 12 0 14-9-1-18-2-27 1-3 4-3 9-3 13v1c0 27-2 56 0 82v3c0 8-1 18 1 24 1 2-2 9 1 8l1 6c0 12 0 23 2 35-2 2-2 6 0 7l1 5c-2 2-2 6 0 7v6c0 2-1 5 1 6l1 6c-2 2-2 6 0 7l1 7c-2 1-2 6 0 6l1 7c-2 2-2 6 0 7l1 7c-2 2-2 6 0 7v7c0 2-1 7 1 8v56c-3 1 0 8-1 10v9c-2 4-1 17 0 21-1 16 3 33 17 43 0 2 3 2 4 3 4 2 9 6 13 5 5 6 15 7 22 8l51 7c1 3 7 0 9 1l3 1 14 2 16 2c28 4 56 3 84 5l1 1h4c0 2 4 2 5 1h5c1 2 5 2 6 1h5c-1 2 3 1 4 1 0 2 3 2 4 1h5c10 3 29 1 39 0h13c2-1 9 2 9-1l7-1c2 2 6 2 7 0l6-1c2 2 6 2 7 0h6c1 1 5 1 5-1 3 1 6-2 10-2 3 2 7 2 10 0 5-1 10-3 15-2 8 1 16-1 24-1 20-1 38-12 57-19 15-2 21-19 31-29 7-8 12-20 11-31 2-9 2-19 3-28l2-15 2-15v-2c2-15 3-31 3-46 2-3 0-11 1-16 1-3 2-7 1-11v-10c3-2 0-10 1-13v-51c1-5 0-8-1-11l-1-8c2-2 2-6 0-7l-1-6c2-2 2-6 0-7l-1-6c2-2 2-6 0-7v-7c0-2 1-7-1-8l-1-9c2-2 2-6 0-7v-6c1-1 1-6-1-6-4-34-8-71-27-101-4-7-8-16-17-20l-7-7c-2-3-6-5-10-6-11-5-25-6-38-7-20-6-43-2-63-8h-54c-4-3-11 2-16 0-9-2-22 3-33 2Z"/>
  <path fill="#f4f9fd" stroke="#f4f9fd" stroke-width=".1" d="M304 23c11 1 24-4 33-2-11 7-26 7-36 17-8-3-10 6-14 11-6 8-4 19-9 27-14-3-25 11-35 17-10 2-11 19-22 18-6 1-9 8-16 8l2-5c8-11 13-25 25-33 9-1 11-11 12-19-4-7-11-11-16-17-3-4-10-2-14-1-4-4-5 2-6 6-2-1-5-1-5-3 0-8 3-15 7-21 2-2 1-4-2-3 9-2 24 0 35 3 0 5 4 4 2 0 4 1 7 5 11 5-2-4-2-8 4-7 9 9 12 21 15 33 4-2 4-10 8-13 5-9 14-14 21-21Z"/>
  <path fill="#d7e7fc" stroke="#d7e7fc" stroke-width=".1" d="M337 21c5 2 12-3 16 0-8 0-15 5-23 7-8 1-14 4-20 8-5 1-7 7-13 9 1 11-3 20-7 29-4 5 2 4 4 5-2 2-5 2-6 5 4 3 11 6 11 12-9-10-23-5-30 4-2-5 6-7 8-11-2-4-1-10-6-10-5 4-13 6-15 14 2 0 7 0 7 3-1 4-6-1-7 2-1 5-7 3-8 8-2 7-8 12-16 11-8 7-17 11-24 19-2 8-5 18 0 26-3 2-9 0-10-4-4-14-6-32 6-43 3-9 9-15 13-23 4-2 6-5 6-9-3 3-12 3-7 9-3 3-6-3-9 0-3 1-4 5 0 4-3 4-9 1-12-2-1-4-4 2-7 1-2-4 3-7 0-11-5 4-10 9-16 9 10-12 27-20 28-37 6-4 12 7 16 0 7 4 16 5 22 11 2 7-1 11-6 14-12 8-17 22-25 33-8 8-13 22-9 33 4 0 3-5 4-7-2-7 8-6 6-12 7 2 10-7 16-9 4-4 13-5 10-12 10-7 16-19 27-24 4-4 12-9 17-3 2-2 8-2 6-6 2-13 4-29 17-36 10-10 25-10 36-17Z"/>
  <path fill="#cee1fd" stroke="#cee1fd" stroke-width=".1" d="M353 21h54c20 6 43 2 63 8-7 4-5 9-1 14-5 1-12 0-17 4-4 2-1 12-6 11-10-4-11 8-9 14 0 4-5 5-9 6-11 1-17 17-10 26-4 3-9 8-6 14 10-4 11 8 11 15-5 7-15 5-22 9 1-3 1-5-1-7-3-19-19-35-37-39-6-5-14-9-22-10-7-1-15-2-22 1l-2 1c-7-5-14-11-23-9-2-1-8 0-4-5 4-9 8-18 7-29 6-2 8-8 13-9 6-4 12-7 20-8 8-2 15-7 23-7Z"/>
  <path fill="#fcd6cf" stroke="#fcd6cf" stroke-width=".1" d="M260 24c11-5 30 0 44-1-7 7-16 12-21 21-4 3-4 11-8 13-3-12-6-24-15-33Z"/>
  <path fill="#edb079" stroke="#edb079" stroke-width=".1" d="m192 24 16-1c-11 13-5 31-14 45-10 9-21 17-30 27l-19-1-5-9 2 10c-3 2-6 5-6 9 10 2 17 11 28 6v42l1 6c2 15 5 30 5 45l-2 5c9 0 17 1 25 5l-5 11-4 4c-18 4-37 3-55 7-3 0-5 2-7 4-16-1-12-19-15-30l-1-8a209 209 0 0 1 1-21c2-25 6-49 9-74l1-8c5 4 2 12 5 16 0-6 1-12-2-17-6-14 0-28 4-41 4-7 10-17 20-14 10 1 5 13 4 20-5 1-10 4-9-5 0-2-2-3-4-4l2 9c-3 0-9-3-10 0-1 5 2 11 8 10 1 3 5 6 9 5l35-26c4-4 3-9 2-14h2c1 4-1 12 4 13-2-9-1-18 5-26Z"/>
  <path fill="#482b1a" stroke="#482b1a" stroke-width=".1" d="M208 23c3-1 4 1 2 3-4 6-7 13-7 21l-3 9c-1 17-18 25-28 37l-4 4c-2 1-1 3-1 5a241 241 0 0 0-1 38l1 8 1 13 1 4 1 9 1 5 1 12v15l-2-3c0-15-3-30-5-45l-1-6a538 538 0 0 1 1-42l1-12c-3 0-6 5-8 1 3 0 5-2 6-4 9-10 20-18 30-27 9-14 3-32 14-45Z"/>
  <path fill="#5d361e" stroke="#5d361e" stroke-width=".1" d="M183 37c2-5 3-13 9-13-6 8-7 17-5 26-5-1-3-9-4-13Z"/>
  <path fill="#f2f6fa" stroke="#f2f6fa" stroke-width=".1" d="M123 31c10-2 19-4 29-4 1 4-4 3-3 7 3 2 8-5 10-1l-3 2c-9-2-15 4-22 6-3 1-4 3-6 5 2-7-8-4-7-10 6 1 3-1 2-5Z"/>
  <path fill="#95b999" stroke="#95b999" stroke-width=".1" d="M470 29c13 1 27 2 38 7-5 4-11-1-17-2-7 0-10 6-15 10-4 6-12 9-17 14-9 11-21 20-24 34 0 5-5 8-4 13 1 10 10 21 2 30l-19 8c-4 1-8 4-7 9l-3 3-3-13c7-4 17-2 22-9 7-11-6-21-2-32-5-9 3-16 7-23 4-1 9-2 9-6-2-6-1-18 9-14 5 1 2-9 6-11 5-4 12-3 17-4-4-5-6-10 1-14Z"/>
  <path fill="#9f968d" stroke="#9f968d" stroke-width=".1" d="M165 32c0-2 3-2 4-1l-4 1Z"/>
  <path fill="#5b3117" stroke="#5b3117" stroke-width=".1" d="M169 31c5-2 10 2 12 6 1 5 2 10-2 14l-35 26c-4 1-8-2-9-5l1-8-9-2c1-3 7 0 10 0l-2-9c2 1 4 2 4 4 2 5-6 15 1 17 7 3 8-7 8-12 1-7 6-19-4-20-10-3-16 7-20 14l-1-1 5-9c2-2 3-4 6-5 7-2 13-8 22-6l4 1c7 0 6 9 6 14 1 3-4 10 1 9 2-3 5-7 5-11 0-5 0-9 2-4l-1 9c2-2 5-4 6-7 2-6-3-16-11-13l-4-1h1l4-1m-25 8c9 2 10 10 8 17-2 3-2 10-3 14 7-2 14-8 14-16 2-6 2-16-6-17-3 1-11-2-13 2Z"/>
  <path fill="#805d44" stroke="#805d44" stroke-width=".1" d="m159 33 5-1 4 1c-2 1-7-1-8 3l-4-1 3-2Z"/>
  <path fill="#e8ac74" stroke="#e8ac74" stroke-width=".1" d="M168 33c8-3 13 7 11 13l-5-2c-2-5-2-1-2 4-1 2-4 2-6 2 0-5 1-14-6-14 1-4 6-2 8-3Z"/>
  <path fill="#86ac8c" stroke="#86ac8c" stroke-width=".1" d="M491 34c6 1 12 6 17 2 4 1 8 3 10 6-7 0-14 4-20-1-8 1-11 10-14 16-3 7-11 11-18 14-12 9-22 24-20 41-2 7 4 13 4 20-7 5-17 5-23 11h-13l19-8c8-9-1-20-2-30-1-5 4-8 4-13 3-14 15-23 24-34 5-5 13-8 17-14 5-4 8-10 15-10Z"/>
  <path fill="#fdd3cd" stroke="#fdd3cd" stroke-width=".1" d="M89 37c8-3 4 4 3 7-3 6-9 6-15 4-11 0-23 11-22 23 0 6-4 9-7 13s-6 7-8 12c-3 9-12-4-9-9 4-11 5-26 17-32 9-14 27-12 41-18Z"/>
  <path fill="#e8ac72" stroke="#e8ac72" stroke-width=".1" d="M144 39c2-4 10-1 13-2 8 1 8 11 6 17-5-2-8 1-11 2 2-7 1-15-8-17Z"/>
  <path fill="#e4f0fd" stroke="#e4f0fd" stroke-width=".1" d="M287 49c4-5 6-14 14-11-13 7-15 23-17 36 2 4-4 4-6 6-5-6-13-1-17 3-11 5-17 17-27 24 3 7-6 8-10 12-6 2-9 11-16 9 2 6-8 5-6 12-1 2 0 7-4 7-4-11 1-25 9-33l-2 5c7 0 10-7 16-8 11 1 12-16 22-18 10-6 21-20 35-17 5-8 3-19 9-27Z"/>
  <path fill="#7b9b7d" stroke="#7b9b7d" stroke-width=".1" d="M484 57c3-6 6-15 14-16 6 5 13 1 20 1l7 7c-9-4-19 1-28 2-7 4-5 12-8 18-8 3-18 3-24 9-7 8-16 16-15 27s7 21 10 32c-4 3-8 3-12 2-8 3-16 4-23 9-4 1-10-4-11 2-1 8 0 18 8 24 7 8 14 17 25 21 2 5 9 11 7 17-7 12 3 26-4 38-9-1-18-4-27-1-8 7-17 13-23 21l-11-5c14-1 23-14 35-19 5-7 21-4 21-15 4-7-8-11-2-17 6-12-9-19-15-27-10-10-23-25-16-41 3-5 11 0 15-3 6-6 16-6 23-11 0-7-6-13-4-20-2-17 8-32 20-41 7-3 15-7 18-14Z"/>
  <path fill="#e8f3fc" stroke="#e8f3fc" stroke-width=".1" d="M208 50c1-4 2-10 6-6 4-1 11-3 14 1 5 6 12 10 16 17-1 8-3 18-12 19 5-3 8-7 6-14-6-6-15-7-22-11-4 7-10-4-16 0l3-9c0 2 3 2 5 3Z"/>
  <path fill="#fce0dd" stroke="#fce0dd" stroke-width=".1" d="M77 48c6 2 12 2 15-4 1 5-2 11-1 16 1 4-5 3-7 4-14 2-25 13-36 20 3-4 7-7 7-13-1-12 11-23 22-23Z"/>
  <path fill="#c68457" stroke="#c68457" stroke-width=".1" d="m174 44 5 2c-1 3-4 5-6 7l1-9Z"/>
  <path fill="#758c70" stroke="#758c70" stroke-width=".1" d="M497 51c9-1 19-6 28-2s13 13 17 20c-2 0-5-3-5 0 2 16 1 34 13 46 1 2 3 7-1 6-4 1-1-7-5-7-2 0-2-3-3-5-4 1 1 6-3 7-7 0-13-7-18-1-2-2-5-6-7-2l6 12c-5 3-8-10-10-4 2 9 12 12 13 20-5-3-4 2-4 6-7 3-19 0-17-9-1-5-7-8-6-13 4-2 6 5 9 1 5-5-7-2-9-4-4 1-4 6-8 7l1-7c-4 5-11 3-15 6s4 6 1 9c-3-1-6-2-8 1 2 3 3 7 3 11 3-2 9 2 4 3-6-3-18-6-19 4-5-8-10 2-14 6 0 6 11 3 11 10 1 6 3 12 8 16 0 7 4 13 4 20 3 4 8 7 9 12 2-2 3-5 6-6 3 4 2 11-4 8 4 2 5 6 6 10 6-1-2-7 3-10 4-4-1 4 2 4 6-3 7 9 0 4-2 2-1 8-5 10-3 1 6 2 2 4-3 5-6-3-9 1 0-5-8-5-5-1 1 6-5 13-11 13 0 7-8 1-12 5l-13-10c-5 4 7 8 4 12-2 3-3-2-4-4-4-1-3 5-6 5-4 1 0 7-3 9-1 3-5 1-5 4 2 1 6 1 5 4-4 0-7-4-10-2l-13-10c6-8 15-14 23-21 9-3 18 0 27 1 7-12-3-26 4-38 2-6-5-12-7-17-11-4-18-13-25-21-8-6-9-16-8-24 1-6 7-1 11-2 7-5 15-6 23-9 4 1 8 1 12-2-3-11-9-21-10-32s8-19 15-27c6-6 16-6 24-9 3-6 1-14 8-18Z"/>
  <path fill="#bb764a" stroke="#bb764a" stroke-width=".1" d="M166 50c2 0 5 0 6-2 0 4-3 8-5 11-5 1 0-6-1-9Z"/>
  <path fill="#cb8456" stroke="#cb8456" stroke-width=".1" d="M152 56c3-1 6-4 11-2 0 8-7 14-14 16 1-4 1-11 3-14Z"/>
  <path fill="#492d1c" stroke="#492d1c" stroke-width=".1" d="m123 55 1 1c-4 13-10 27-4 41 3 5 2 11 2 17-3-4 0-12-5-16-3 0 0 6-1 8-3 25-7 49-9 74l-1 9v12l1 8c3 11-1 29 15 30l3 2-2 1c-5-1-10-1-13-5l-3-9c-3 1-6 4-8 7l-1-1 1-2c4-3 9-6 6-12a135 135 0 0 1-2-34v-1c2-2 2-5 1-7v-5l1-4a260 260 0 0 0 1-9l6-43c2-1 1-3 1-5l1-10 1-4c2-3 2-6 1-9v-9l1-8 1-3c2-5 2-10 5-14Z"/>
  <path fill="#c78055" stroke="#c78055" stroke-width=".1" d="M139 57c-1 9 4 6 9 5 0 5-1 15-8 12-7-2 1-12-1-17Z"/>
  <path fill="#f0f6fc" stroke="#f0f6fc" stroke-width=".1" d="M91 60c-1 7 8 9 14 7 4 1 9 4 13 2l-1 3-9 1c-5 14-29-2-33 14-10 2-18 9-22 18 9 3 20 8 24 18-3 1-6 2-5 6-5-2-6-9-12-9l1 6c-12-4-26-6-38-3 0-4 0-9 3-13 9-3 18-2 27-1-7-2-3-10 0-14 3-6-8 6-10 1 0-2-2 0-3 0 2-5 5-8 8-12 11-7 22-18 36-20 2-1 8 0 7-4Z"/>
  <path fill="#c98256" stroke="#c98256" stroke-width=".1" d="m127 62 9 2-1 8c-6 1-9-5-8-10Z"/>
  <path fill="#74876d" stroke="#74876d" stroke-width=".1" d="M537 69c0-3 3 0 5 0 19 30 23 67 27 101l1 6v13l1 9 1 8v14l1 6v7l1 6v7l1 8v85l-1 11c-1 5 1 13-1 16l-1-1v-2c-14-8-29-11-44-15-1-4-3-8-8-9-18-12-40-19-56-34-14-11-32-16-48-22l-3-3c3-2 6 2 10 2 1-3-3-3-5-4 0-3 4-1 5-4 3-2-1-8 3-9 3 0 2-6 6-5 1 2 2 7 4 4 3-4-9-8-4-12l13 10c4-4 12 2 12-5 6 0 12-7 11-13-3-4 5-4 5 1 3-4 6 4 9-1 4-2-5-3-2-4 4-2 3-8 5-10 7 5 6-7 0-4-3 0 2-8-2-4-5 3 3 9-3 10-1-4-2-8-6-10 6 3 7-4 4-8-3 1-4 4-6 6-1-5-6-8-9-12 0-7-4-13-4-20-5-4-7-10-8-16 0-7-11-4-11-10 4-4 9-14 14-6 1-10 13-7 19-4 5-1-1-5-4-3 0-4-1-8-3-11 2-3 5-2 8-1 3-3-5-6-1-9s11-1 15-6l-1 7c4-1 4-6 8-7 2 2 14-1 9 4-3 4-5-3-9-1-1 5 5 8 6 13-2 9 10 12 17 9 0-4-1-9 4-6-1-8-11-11-13-20 2-6 5 7 10 4l-6-12c2-4 5 0 7 2 5-6 11 1 18 1 4-1-1-6 3-7 1 2 1 5 3 5 4 0 1 8 5 7 4 1 2-4 1-6-12-12-11-30-13-46Z"/>
  <path fill="#dcebfc" stroke="#dcebfc" stroke-width=".1" d="m108 73 9-1-1 8-1 3c-6 0-14-2-17 4-6-2-7 6-11 6-3-9-14-2-19 1-4 2-9 5-9 10 15 9 33 21 37 41-4 0-2 6-6 3-7-8-19-6-24-16-14-5-28-8-43-8v-1c12-3 26-1 38 3l-1-6c6 0 7 7 12 9-1-4 2-5 5-6-4-10-15-15-24-18 4-9 12-16 22-18 4-16 28 0 33-14Z"/>
  <path fill="#a3c3a6" stroke="#a3c3a6" stroke-width=".1" d="M418 104c-7-9-1-25 10-26-4 7-12 14-7 23-4 11 9 21 2 32 0-7-1-19-11-15-3-6 2-11 6-14Z"/>
  <path fill="#cfe1fc" stroke="#cfe1fc" stroke-width=".1" d="M256 93c2-8 10-10 15-14 5 0 4 6 6 10-2 4-10 6-8 11-1 3-5 6-2 8l14-2c2 0 6 0 2 2-9 2-17 6-20 15-2 5 4 8 8 8h3c-6 7 0 16-3 24-9 17-1 36 5 53 1 6 1 14 6 18l15 3c0 7-2 13-4 19-7 6-10-4-14-8l-24-7 2-3c7-2 18-2 16-12-3-7-12-9-19-12-8-4-19-7-28-6-6-4-12-9-19-11-7-4-12-12-21-11-6 1-11-2-16-4l-1-9-1-4-1-13-1-8a281 281 0 0 1 2-43l4-4c6 0 11-5 16-9 3 4-2 7 0 11 3 1 6-5 7-1 3 3 9 6 12 2-4 1-3-3 0-4 3-3 6 3 9 0-5-6 4-6 7-9 0 4-2 7-6 9-4 8-10 14-13 23-12 11-10 29-6 43 1 4 7 6 10 4-5-8-2-18 0-26 7-8 16-12 24-19 8 1 14-4 16-11 1-5 7-3 8-8 1-3 6 2 7-2 0-3-5-3-7-3Z"/>
  <path fill="#4c3224" stroke="#4c3224" stroke-width=".1" d="M294 79c9-2 16 4 23 9l4 6v1c-7-7-18-16-29-13 1 6 12 8 8 16 5 7 15-2 20 4v3c-5-5-12-4-17-1-9 5-18 12-23 22 6-1 16 0 14 8-6-4-19-8-19 2v10c0 8-6 15-6 23 0 13 5 25 8 37l-1 2c-6-17-14-36-5-53 3-8-3-17 3-24 2-2-2-2-3 0-4 0-10-3-8-8 3-9 11-13 20-15 0 5-14 3-15 11 5-2 10-6 16-4 5-4 11-7 15-12-4-4-9-6-14-9l9 2c-4-6-12-3-17 0-3 3-9 5-9 10l16-2-3 2-14 2c-3-2 1-5 2-8 7-9 21-14 30-4 0-6-7-9-11-12 1-3 4-3 6-5Z"/>
  <path fill="#a0a2ab" stroke="#a0a2ab" stroke-width=".1" d="m115 83 1-3v9l-1-6Z"/>
  <path fill="#68452b" stroke="#68452b" stroke-width=".1" d="M292 82c11-3 22 6 29 13 1 3 5 8-1 7-5-6-15 3-20-4 4-8-7-10-8-16Z"/>
  <path fill="#cfe1fd" stroke="#cfe1fd" stroke-width=".1" d="M98 87c3-6 11-4 17-4l1 6c1 3 1 6-1 9l-1 4-1 10c-2 1-1 3-1 5l-6 43a1458 1458 0 0 1-2 13v5c-2 2-2 5-1 7v1c-4 1-7 0-11-1-7-1-15 3-17 11-2 4-9 2-12 5-4 4-5-4-8-6-6-2-9 6-14 3-6-2-13 1-18-2v10c-2-26 0-55 0-82 15 0 29 3 43 8 5 10 17 8 24 16 4 3 2-3 6-3-4-20-22-32-37-41 0-5 5-8 9-10 5-3 16-10 19-1 4 0 5-8 11-6Z"/>
  <path fill="#672f16" stroke="#672f16" stroke-width=".1" d="m140 85 5 9-3 1-2-10Z"/>
  <path fill="#583826" stroke="#583826" stroke-width=".1" d="M319 87c7-3 15-2 22-1l-4 1c-2 0-8 0-5 3 5 9 15 13 22 19-2 0-5-2-7 1 3 0 7-1 9 2-2 1-7 0-7 4-4 7-1 15 4 21 11 2 24 1 30 11-8-4-18-10-26-7 6 3 16 2 22 8 1 3-1 5-3 6 9 5 13 17 25 18l1-9c2 6-2 12-1 18-4 8-7 17-14 23-4 2 2 6-1 9-1 6-6 9-11 10 0 6-3 17-12 12 6 0-5-4-1-7-1-7 2-14 0-21l2-5c12-1 26-10 24-24 0-8-5-21-15-17-7 1-9 14-16 10-5-5-2-12-2-18 1-12-10-20-10-32l2-10c-9-2-19-2-27-7v-3c6 1 2-4 1-7v-1c5 4 4-1 3-5 4 5 6 13 14 13l-9-13c-1-4-7 0-10-2Z"/>
  <path fill="#423021" stroke="#423021" stroke-width=".1" d="m337 87 4-1c8 1 16 5 22 10 18 4 34 20 37 39-1 3-1 5 1 7l3 13v16c0 4-2 8-3 11-1-6 3-12 1-18 0-6 1-11-1-17-6-2-12-1-16-5h2c4 0 17 8 12-2l-7-5 6 2c0-16-13-29-26-36-13-3-22-14-35-14Z"/>
  <path fill="#694732" stroke="#694732" stroke-width=".1" d="m317 88 2-1c3 2 9-2 10 2l9 13c-8 0-10-8-14-13 1 4 2 9-3 5l-4-6Z"/>
  <path fill="#714e2f" stroke="#714e2f" stroke-width=".1" d="M332 90c-3-3 3-3 5-3 13 0 22 11 35 14 13 7 26 20 26 36l-6-2 7 5c5 10-8 2-12 2 4-5-6-6-9-8-5-3-4 2-2 5-6 2-8-5-14-6 6-8-4-15-11-17 1 1 4 7 0 6l-2-6c0-4 5-3 7-4-2-3-6-2-9-2 2-3 5-1 7-1-7-6-17-10-22-19Z"/>
  <path fill="#66442b" stroke="#66442b" stroke-width=".1" d="M277 96c5-3 13-6 17 0l-9-2c5 3 10 5 14 9-4 5-10 8-15 12-6-2-11 2-16 4 1-8 15-6 15-11 4-2 0-2-2-2l3-2-16 2c0-5 6-7 9-10Z"/>
  <path fill="#d0875b" stroke="#d0875b" stroke-width=".1" d="m145 94 19 1c-1 2-3 4-6 4-4 1-10-4-12 0 3 3 8 1 12 0 2 4 5-1 8-1l-1 12h-1c-11 5-18-4-28-6 0-4 3-7 6-9l3-1Z"/>
  <path fill="#7d3c20" stroke="#7d3c20" stroke-width=".1" d="M146 99c2-4 8 1 12 0-4 1-9 3-12 0Z"/>
  <path fill="#7a7777" stroke="#7a7777" stroke-width=".1" d="M167 102c0-2-1-4 1-5l-1 5Z"/>
  <path fill="#877f88" stroke="#877f88" stroke-width=".1" d="m114 102 1-4-1 4Z"/>
  <path fill="#90633e" stroke="#90633e" stroke-width=".1" d="M116 106c1-2-2-8 1-8l-1 8Z"/>
  <path fill="#eeb178" stroke="#eeb178" stroke-width=".1" d="M303 104c5-3 12-4 17 1 8 5 18 5 27 7l-2 10c0 12 11 20 10 32 0 6-3 13 2 18 7 4 9-9 16-10 10-4 15 9 15 17-2 13-18 25-30 15-1 11-7 23-18 27s-23 5-34 6c-8 0-17 0-24-4-3-6-3-12-5-17-3-12-8-24-8-37 0-8 6-15 6-23v-10c0-10 13-6 19-2 2-8-8-9-14-8 5-10 14-17 23-22m13 17c-3 0-8-1-9 3 1 7 9 3 14 2 9-3 17 2 24 6-5-10-18-14-29-11m-1 13c3 5-4 10 0 15l11-1 3-2 3-1c4 2 3-4 2-6-5-5-13-9-19-5m-34 10 2 1c0 2-3 2-4 4 0 4 8 0 5 3-2 5 1 15 6 16 1-5-4-9-4-14 5-5 12-9 10-17-3 2-2 6-4 8l-2-3c1-3-4-4-6-5-4 0-10 9-3 7m11 14c-3 2 2 5 4 4l-4-4m75 25c-2 1-1 3-2 4l-2 3c5 6 15 0 17-6 1-1 2-6 0-3-1-2-1-4 1-6l-1-7c-9-2-13 8-13 15m-89-2c-1 8 8 13 14 10 3 3 10 2 13 4h-14l-8-1c4 6 13 3 19 4 11-1 25-3 30-14 5-4-3-12-5-6-11-1-20-6-31-5-6 0-16 1-18 8Z"/>
  <path fill="#a4abb7" stroke="#a4abb7" stroke-width=".1" d="m166 117 1-10-1 10Z"/>
  <path fill="#815539" stroke="#815539" stroke-width=".1" d="M164 110h1l-1 13v-13Z"/>
  <path fill="#9a98a0" stroke="#9a98a0" stroke-width=".1" d="M112 117c0-2-1-4 1-5 0 2 1 4-1 5Z"/>
  <path fill="#63412b" stroke="#63412b" stroke-width=".1" d="M353 137c-5-6-8-14-4-21l2 6c4 1 1-5 0-6 7 2 17 9 11 17 6 1 8 8 14 6-2-3-3-8 2-5 3 2 13 3 9 8h-2c4 4 10 3 16 5 2 6 1 11 1 17l-1 9c-12-1-16-13-25-18 2-1 4-3 3-6-6-6-16-5-22-8 8-3 18 3 26 7-6-10-19-9-30-11Z"/>
  <path fill="#5a341c" stroke="#5a341c" stroke-width=".1" d="M316 121c11-3 24 1 29 11-7-4-15-9-24-6-5 1-13 5-14-2 1-4 6-3 9-3Z"/>
  <path fill="#968e93" stroke="#968e93" stroke-width=".1" d="M271 131c1-2 5-2 3 0h-3Z"/>
  <path fill="#513420" stroke="#513420" stroke-width=".1" d="M315 134c6-4 14 0 19 5 1 2 2 8-2 6-1-4-8-12-10-7v4c0 1-2 4 0 4l4 2-11 1c-4-5 3-10 0-15Z"/>
  <path fill="#80898e" stroke="#80898e" stroke-width=".1" d="M400 135c2 2 2 4 1 7-2-2-2-4-1-7Z"/>
  <path fill="#b68255" stroke="#b68255" stroke-width=".1" d="M275 146v-10 10Z"/>
  <path fill="#f7f4ee" stroke="#f7f4ee" stroke-width=".1" d="M322 138c2-5 9 3 10 7l-3 1h-7c-2 0 0-3 0-4 2-1 2-3 0-4Z"/>
  <path fill="#54331c" stroke="#54331c" stroke-width=".1" d="M281 144c-7 2-1-7 3-7 2 1 7 2 6 5-4-3-2 5-2 7l4-4c2-2 1-6 4-8 2 8-5 12-10 17 0 5 5 9 4 14-5-1-8-11-6-16 3-3-5 1-5-3 1-2 4-2 4-4 2-4-2-5-2-1Z"/>
  <path fill="#93877a" stroke="#93877a" stroke-width=".1" d="M322 138c2 1 2 3 0 4v-4Z"/>
  <path fill="#9999a3" stroke="#9999a3" stroke-width=".1" d="m166 140 1 8-1-8Z"/>
  <path fill="#f0e1d2" stroke="#f0e1d2" stroke-width=".1" d="M281 144c0-4 4-3 2 1l-2-1Z"/>
  <path fill="#ece7d4" stroke="#ece7d4" stroke-width=".1" d="M288 149c0-2-2-10 2-7l2 3-4 4Z"/>
  <path fill="#80a489" stroke="#80a489" stroke-width=".1" d="M407 152c-1-5 3-8 7-9h13c-4 3-12-2-15 3-7 16 6 31 16 41 6 8 21 15 15 27-6 6 6 10 2 17 0 11-16 8-21 15-12 5-21 18-35 19-6-1-11 3-15 6l-6-3c3-3 9-11 13-5 1-4 5-5 9-5-2-7 4-4 7-4 2-3 1-6 2-9 6-3 14-2 19-6 2-7 12-5 11-12h-9c1-6 9-3 13-5-1-8-5-15-3-23-10-5-10-16-15-25-4-7-6-15-8-22Z"/>
  <path fill="#876c55" stroke="#876c55" stroke-width=".1" d="M322 146a111243 111243 0 0 0 4 2l-4-2Z"/>
  <path fill="#9d6d49" stroke="#9d6d49" stroke-width=".1" d="m164 152 1 6-1-6Z"/>
  <path fill="#87ac90" stroke="#87ac90" stroke-width=".1" d="M407 152c2 7 4 15 8 22 5 9 5 20 15 25-2 8 2 15 3 23-4 2-12-1-13 5h9c1 7-9 5-11 12-5 4-13 3-19 6-1 3 0 6-2 9-3 0-9-3-7 4-4 0-8 1-9 5-4-6-10 2-13 5-4-2-7-5-6-10 7 3 12-4 18-6 4-4 7-10 13-11 4-1-2-11 5-8 4 1-3-5 1-4 8 1 4-7 9-8 2-7 8-12 7-19-6-10-2-22-5-32-2-3-1-11-5-11 0 4 2 9-1 12v-16l3-3Z"/>
  <path fill="#613314" stroke="#613314" stroke-width=".1" d="m292 158 4 4c-2 1-7-2-4-4Z"/>
  <path fill="#90b398" stroke="#90b398" stroke-width=".1" d="M405 159c4 0 3 8 5 11 3 10-1 22 5 32 1 7-5 12-7 19-5 1-1 9-9 8-4-1 3 5-1 4-7-3-1 7-5 8-6 1-9 7-13 11-6 2-11 9-18 6 1-7-2-16 1-22 9 5 12-6 12-12 5-1 10-4 11-10 3-3-3-7 1-9 7-6 10-15 14-23 1-3 3-7 3-11 3-3 1-8 1-12Z"/>
  <path fill="#8d8e9a" stroke="#8d8e9a" stroke-width=".1" d="M105 166Z"/>
  <path fill="#8f8e95" stroke="#8f8e95" stroke-width=".1" d="m168 161 1 4-1-4Z"/>
  <path fill="#673618" stroke="#673618" stroke-width=".1" d="M367 183c0-7 4-17 13-15l1 7c-1-8-7-4-11 0 3 3 0 7-3 8Z"/>
  <path fill="#898993" stroke="#898993" stroke-width=".1" d="m104 173 1-4-1 4Z"/>
  <path fill="#c0764d" stroke="#c0764d" stroke-width=".1" d="M370 175c4-4 10-8 11 0-2 2-2 4-1 6-3 6-10 13-15 6 1-1 0-3 2-4 3-1 6-5 3-8Z"/>
  <path fill="#b8c4b6" stroke="#b8c4b6" stroke-width=".1" d="M569 170c2 0 2 5 1 6l-1-6Z"/>
  <path fill="#553521" stroke="#553521" stroke-width=".1" d="M278 181c2-7 12-8 18-8 11-1 20 4 31 5 2-6 10 2 5 6-5 11-19 13-30 14-6-1-15 2-19-4l8 1c5 1 10 2 14 0 10 0 22-3 25-14a293 293 0 0 1-26-5c-4-1-9-2-13 0-3 0-7 0-9 2 0 4-1 9 3 11 2 2 4 2 6 0 5-1 10-3 16-3 1 2 3 1 5 1l6 2h-17l-9 2c-6 3-15-2-14-10Z"/>
  <path fill="#afc899" stroke="#afc899" stroke-width=".1" d="M170 174c5 2 10 5 16 4 9-1 14 7 21 11 7 2 13 7 19 11 9-1 20 2 28 6-5 1-12 1-17-2-15 0-26-11-39-16-7-9-18-4-27-9l-1-5Z"/>
  <path fill="#9f908a" stroke="#9f908a" stroke-width=".1" d="M291 176Z"/>
  <path fill="#f9f8f5" stroke="#f9f8f5" stroke-width=".1" d="M282 178c2-2 6-2 9-2h13l19 4c1 2 3 1 4 1h3c-3 11-15 14-25 14-3-2-10-1-13-4l9-2h17l-6-2-5-1c-6 0-11 2-16 3h-6c-4-2-3-7-3-11Z"/>
  <path fill="#676668" stroke="#676668" stroke-width=".1" d="M103 185c-1-2-1-5 1-7 1 2 1 5-1 7Z"/>
  <path fill="#a3c18a" stroke="#a3c18a" stroke-width=".1" d="M171 179c9 5 20 0 27 9 13 5 24 16 39 16 5 3 12 3 17 2 7 3 16 5 19 12 2 10-9 10-16 12-5-9-18-8-27-12-5-6-13-8-19-13-4-3-8-8-14-9-8-2-18 0-25-5l-1-12Z"/>
  <path fill="#502c17" stroke="#502c17" stroke-width=".1" d="M388 179c2 14-12 23-24 24 2-3-1-4-4-5-3 10-7 22-18 26-7 4-16 4-25 5-5 1-14-2-18 1-1 6-1 14-5 19l-1-1c2-6 4-12 4-19l-15-3c-5-4-5-12-6-18l1-2c2 5 2 11 5 17 7 4 16 4 24 4 11-1 23-2 34-6s17-16 18-27c12 10 28-2 30-15Z"/>
  <path fill="#986845" stroke="#986845" stroke-width=".1" d="m106 189 1-9-1 9Z"/>
  <path fill="#aba096" stroke="#aba096" stroke-width=".1" d="m323 180 4 1c-1 0-3 1-4-1Z"/>
  <path fill="#653414" stroke="#653414" stroke-width=".1" d="M380 181c2-3 1 2 0 3-2 6-12 12-17 6l2-3c5 7 12 0 15-6Z"/>
  <path fill="#bdc7ba" stroke="#bdc7ba" stroke-width=".1" d="M570 182c2 1 2 5 0 7v-7Z"/>
  <path fill="#acc792" stroke="#acc792" stroke-width=".1" d="M75 196c2-8 10-12 17-11 4 1 7 2 11 1v7c-10-5-16 6-24 9-6 9-17 1-25 6-3-3-7-3-11-2-8-3-12 6-20 3v-13c5 3 12 0 18 2 5 3 8-5 14-3 3 2 4 10 8 6 3-3 10-1 12-5Z"/>
  <path fill="#928781" stroke="#928781" stroke-width=".1" d="m307 186 5 1c-2 0-4 1-5-1Z"/>
  <path fill="#9b9189" stroke="#9b9189" stroke-width=".1" d="M301 189h8-8Z"/>
  <path fill="#b1aaa8" stroke="#b1aaa8" stroke-width=".1" d="M285 189h6c-2 2-4 2-6 0Z"/>
  <path fill="#90b17b" stroke="#90b17b" stroke-width=".1" d="M172 191c7 5 17 3 25 5 6 1 10 6 14 9 6 5 14 7 19 13 9 4 22 3 27 12l-2 3c-11-4-22-8-32-14-9-5-16-15-26-18h-8c-6 1-10 7-17 5v-15Z"/>
  <path fill="#a3c087" stroke="#a3c087" stroke-width=".1" d="M79 202c8-3 14-14 24-9l2 27c-3 6-11 3-16 7s-12-1-16 5c-11 0-19-10-30-7-7 2-12-3-19-1v9c-2-6-1-16-1-24 8 3 12-6 20-3 4-1 8-1 11 2 8-5 19 3 25-6Z"/>
  <path fill="#b68b5f" stroke="#b68b5f" stroke-width=".1" d="M291 195h14c-4 2-9 1-14 0Z"/>
  <path fill="#c27550" stroke="#c27550" stroke-width=".1" d="M360 198c3 1 6 2 4 5l-2 5-2 16c3-12-9-1-12 3-6 1-10 4-14 8-15 7-26 19-41 26l-6-9c3 1 6 0 7-3 4-5 4-13 5-19l18-1c9-1 18-1 25-5 11-4 15-16 18-26Z"/>
  <path fill="#bac0b4" stroke="#bac0b4" stroke-width=".1" d="M571 198c2 1 1 6 1 8l-1-8Z"/>
  <path fill="#a97851" stroke="#a97851" stroke-width=".1" d="m106 201 1 8-1-8Z"/>
  <path fill="#5f3e27" stroke="#5f3e27" stroke-width=".1" d="M172 206c7 2 11-4 17-5-3 2-6 3-8 6l12 4c0-2 1-4 3-2 2 22-10 43-20 62l-17 28c-3 1-1-2-1-4 3-6 9-11 10-18-8-8-9-23-21-26l-24-9 2-1h2l14 5c12 5 24 11 37 14 9-13 16-30 16-47h-1c-8-4-16-5-25-5l2-5 2 3m-12 51c2 6 5 13 10 18 2-4 6-8 6-13l-16-5Z"/>
  <path fill="#fbefd7" stroke="#fbefd7" stroke-width=".1" d="M189 201h8c9 6 16 16 26 21 16 9 35 14 52 20 7 3 9 12 13 18 13 21 35 34 56 45 9 4 20 10 30 6 6-3 11-8 14-13l1 24a131 131 0 0 1-2 21c-3 24-9 48-15 71-7-2-2-12-4-17 4-10 0-20 2-30 2-5-2-10 0-15-4-9 0-23-12-27-6-5-13-10-20-13-4-2-9-3-12-7-9-6-21-10-24-22-9 0-10-10-17-13l-12-5c1 10 1 21 6 30 6 12 5 25 10 38 10 25 1 52 4 78-1 10-5 21-10 29-9-32-14-64-19-97 0-2 1-4-1-5v-5l-1-6c-2-23-4-47-13-69-1-4-3 0-1 2l4 18c0 1-1 3 1 4l3 20 1 6 1 14 1 9c0 11 2 22 4 33l1 4c6 30 10 60 21 88 0 4-3 7-7 9-3 10-6 21-6 32l23 25-20-7c-8-2-13-9-12-17 0-16-17-22-22-35v-19l1-4a258 258 0 0 1 1-7l5-29h2l14 40-2-12c4-2 4-7 5-10-3-26-9-51-17-75-13-33-13-69-27-101-1-3-3 1-1 2 2 7 5 14 6 22-3 7-13-7-15 0-6-2-10 6-16 3-6-1-8 5-14 6-3 7-9 12-11 19-3 4 5 7 8 7 10 2 19 8 28 12 11 5 22 14 34 12l4 14c-14-5-27-12-40-18-22-12-46-19-70-24a84 84 0 0 1-46-30c-11-12 3-25 9-36 2-3 5-6 8-7l3 9c-8 2-11 11-14 18-3 5 2 10 5 14 15 15 36 26 57 26 0 2-2 5 1 4l17-28c10-19 22-40 20-62-2-2-3 0-3 2l-12-4c2-3 5-4 8-6Z"/>
  <path fill="#593a21" stroke="#593a21" stroke-width=".1" d="M197 201c10 3 17 13 26 18 10 6 21 10 32 14l24 7c4 4 7 14 14 8l1 1c-1 3-4 4-7 3a135 135 0 0 0 8 12c7 9 16 18 25 25 9 4 22 1 26 11-6-3-12-6-18-7 12 9 26 17 42 18 10-4 23-15 18-27-5 7-14 7-21 10-4 3-1-3 1-3 7-3 20-4 19-15 4 4 3 14 3 21l-2 1c-3 5-8 10-14 13-10 4-21-2-30-6-21-11-43-24-56-45-4-6-6-15-13-18-17-6-36-11-52-20-10-5-17-15-26-21Z"/>
  <path fill="#4c2f18" stroke="#4c2f18" stroke-width=".1" d="M362 208c2 7-1 14 0 21-4 3 7 7 1 7-3 6 0 15-1 22-1 5 2 8 6 10l6 3c1 2 7 1 5 3-6 0-11-4-16-6-2 2 4 11-1 10-2-4-2-9-2-14a308 308 0 0 0 0-40l2-16Z"/>
  <path fill="#c57c53" stroke="#c57c53" stroke-width=".1" d="M193 213h1c0 17-7 34-16 47-13-3-25-9-37-14 10-4 20-5 31-5 7-4 17-8 16-17l5-11Z"/>
  <path fill="#bec7bb" stroke="#bec7bb" stroke-width=".1" d="M572 213c2 1 2 5 0 7v-7Z"/>
  <path fill="#efb179" stroke="#efb179" stroke-width=".1" d="M348 227c3-4 15-15 12-3a489 489 0 0 0 0 40c0 5 0 10 2 14 5 1-1-8 1-10 5 2 10 6 16 6l8 2c1 11-12 12-19 15-2 0-5 6-1 3 7-3 16-3 21-10 5 12-8 23-18 27-16-1-30-9-42-18 6 1 12 4 18 7-4-10-17-7-26-11-9-7-18-16-25-25 20-9 37-23 53-37Z"/>
  <path fill="#94b37e" stroke="#94b37e" stroke-width=".1" d="M89 227c5-4 13-1 16-7 3 6-2 9-6 12-7 4-15 9-23 5l2 11c-2 2-5 2-8 1-7 1-10-5-14-9-2-9-15-7-21-5-4 2-11 0-10 6-3 1 0-6-1-8v-9c7-2 12 3 19 1 11-3 19 7 30 7 4-6 11-1 16-5Z"/>
  <path fill="#d08a5d" stroke="#d08a5d" stroke-width=".1" d="m184 228 4-4c1 9-9 13-16 17-11 0-21 1-31 5l-14-5c15-7 33-4 49-7 4 0 6-3 8-6Z"/>
  <path fill="#bbc5b9" stroke="#bbc5b9" stroke-width=".1" d="M573 226c2 1 2 5 0 7v-7Z"/>
  <path fill="#cf855a" stroke="#cf855a" stroke-width=".1" d="M334 235c4-4 8-7 14-8-16 14-33 28-53 37l-2-3c15-7 26-19 41-26Z"/>
  <path fill="#e09f6c" stroke="#e09f6c" stroke-width=".1" d="M129 235c18-4 37-3 55-7-2 3-4 6-8 6-16 3-34 0-49 7h-2l-3-2c2-2 4-4 7-4Z"/>
  <path fill="#834a31" stroke="#834a31" stroke-width=".1" d="M299 230c4-3 13 0 18-1l-18 1Z"/>
  <path fill="#87a473" stroke="#87a473" stroke-width=".1" d="M76 237c8 4 16-1 23-5l-1 2c-6 9-15 17-14 28-7 4-10-4-14-9-6 3-13 1-18-3-2-9-13-4-20-5-2-1-5-1-6 2l-1-6c-1-6 6-4 10-6 6-2 19-4 21 5 4 4 7 10 14 9 3 1 6 1 8-1l-2-11Z"/>
  <path fill="#655f41" stroke="#655f41" stroke-width=".1" d="M84 262c-1-11 8-19 14-28l1 1c-6 11-20 24-9 36-4 1-4-6-6-9Z"/>
  <path fill="#8b5b36" stroke="#8b5b36" stroke-width=".1" d="M360 264Z"/>
  <path fill="#ecd9cb" stroke="#ecd9cb" stroke-width=".1" d="M110 237c3 4 8 4 13 5l24 9c12 3 13 18 21 26-1 7-7 12-10 18-21 0-42-11-57-26-3-4-8-9-5-14 3-7 6-16 14-18Z"/>
  <path fill="#b6beb2" stroke="#b6beb2" stroke-width=".1" d="M574 239c2 1 2 5 0 7v-7Z"/>
  <path fill="#7c976b" stroke="#7c976b" stroke-width=".1" d="M26 247c1-3 4-3 6-2 7 1 18-4 20 5 5 4 12 6 18 3 4 5 7 13 14 9 2 3 2 10 6 9l5 5v3c-1 1-2 2-1 3 5 5-3 2-6 1-6 4-10 11-17 14-4 2 3 4 2 8 4 3-1 3-4 5-7-1-17 3-25-3 2-6-5 0-6-4-1-3-4 0-6 0 3 3 0 6-2 8l-1-4v-13l-1-5v-7c-2-12-2-23-2-35Z"/>
  <path fill="#b3a086" stroke="#b3a086" stroke-width=".1" d="M222 248c-2-1 0-5 1-2l-1 2Z"/>
  <path fill="#533f2d" stroke="#533f2d" stroke-width=".1" d="m222 248 1-2c14 32 14 68 27 101-10-2-19-8-28-12 12 33 31 63 40 97l2 12a817 817 0 0 0-16-40l-5 29-1 4a258 258 0 0 0-1 7v6c0 4-2 9 0 13 5 13 22 19 22 35-1 8 4 15 12 17-1 1-3 4-5 1-4-3-8-7-9-12 0-2 1-4-1-5v-4c-19 1-39-5-53-18-10-15-20-32-27-49-4-10-12-18-18-26l1-1 4 4a339 339 0 0 0 13 16c6 15 12 28 21 41 4 10 10 19 21 22l4 2 13 5c7 2 15 2 22 3l-4-7c-8-10-22-17-19-32l4-33 5-24-10-21a296 296 0 0 0-4-8l-6-13-6-19c-1-5-6-5-10-7l-2-1-5-3 2-1c13 6 26 13 40 18l-4-14-9-33c-1-9-2-18-5-26-1-8-4-15-6-22Z"/>
  <path fill="#c7cec4" stroke="#c7cec4" stroke-width=".1" d="M575 254c1 3 2 6 1 11h-1v-11Z"/>
  <path fill="#a29279" stroke="#a29279" stroke-width=".1" d="M248 260c-2-2 0-6 1-2l-1 2Z"/>
  <path fill="#e8d7c6" stroke="#e8d7c6" stroke-width=".1" d="m160 257 16 5c0 5-4 9-6 13-5-5-8-12-10-18Z"/>
  <path fill="#573f2c" stroke="#573f2c" stroke-width=".1" d="m248 260 1-2a236 236 0 0 1 14 75v5c0 2-1 4 1 5 5 33 10 65 19 97a177 177 0 0 0 9 28l1 3h-1l-7-15c-11-28-15-58-21-88l-1-4c-2-11-4-22-4-33l-1-9-1-14-1-6-3-20-1-4-4-18Z"/>
  <path fill="#f6e6d5" stroke="#f6e6d5" stroke-width=".1" d="m273 265 12 5c7 3 8 13 17 13 3 12 15 16 24 22 3 4 8 5 12 7 7 3 14 8 20 13 12 4 8 18 12 27-2 5 2 10 0 15-2 10 2 20-2 30 2 5-3 15 4 17-8 36-16 71-27 106-2 6-1 16-9 12-4-5 3-9 2-15 3-10 3-21 10-30 0-8 1-15 4-23 6-6 1-16 8-22 7-24 1-49 5-73-2-3-1-7-1-11-5-7-2-16-4-23-7-3-11-10-17-14-18-12-36-23-52-37-2-3-3 1-4 3 1 8 3 15 7 21-2 4-1 8-2 12 8 6 5 16 7 24 2 32 3 65-6 96l-7 10-3-10c5-8 9-19 10-29-3-26 6-53-4-78-5-13-4-26-10-38-5-9-5-20-6-30Z"/>
  <path fill="#4f3a3d" stroke="#4f3a3d" stroke-width=".1" d="M374 271c4-3 9-7 15-6l11 5 13 10 3 3v10l1 4 1 12 1 8v47l-1 9v10a1493 1493 0 0 1-5 65l-1 6a144 144 0 0 1-2 20l-2 23c-2 2-2 5-1 7l-1 19c-1 3-2 6 2 4l29-11c3-2 2-7 2-10l1-2 1 1c-3 16-1 31-1 47-5-1-10 1-15 2h-10c-4 0-7 3-10 2l-5 1h-13l-6 1h-7l-7 1h-9c-22-1-46 1-67-7 2-4 6 0 9-1 28 5 56 4 84 1 18-5 39-5 51-21-10-2-19 7-29 7-9 6-20 2-30 4-29 3-58-1-86-10-6-2-11-5-17-6 2 8-4 19 5 24 6 2 12 4 17 8h-7l-6-1h-5l-5-1h-4v-4l1-10v-1l1-4v-21c2 3 4 0 5-1l20 7c9 4 19 6 28 8l4 1 9 1c8 4 7-6 9-12a1265 1265 0 0 0 42-177c2-1 1-3 1-5l1-16 1-25c0-7 1-17-3-21l-8-2c2-2-4-1-5-3m22 3c6 44 1 88-2 131-3 14-4 29-8 43 0 11-7 21-7 31-4 17-10 34-13 52 12-1 26 0 37-5-4-9 0-17 2-25-3-10 2-20 1-30 5-12 0-27 4-40 2-9 5-17 2-26 3-8 1-16 4-24-4-7 1-15-1-23 2-15-1-31 2-46-6-13-1-35-21-38m-6 71c-6 43-19 84-27 127-5 19-11 39-15 59 3-1 8 2 10-1 9-19 11-39 19-58 9-42 17-84 15-127h-2Z"/>
  <path fill="#93a18c" stroke="#93a18c" stroke-width=".1" d="M575 265h1v51h-1v-51Z"/>
  <path fill="#f3e2d0" stroke="#f3e2d0" stroke-width=".1" d="M213 270c2-7 12 7 15 0 3 8 4 17 5 26 0 9-4-1-5-5-9-6-20-4-30-5-4-1-6 6-11 4-6 0-15 6-10 12 11 3 23 7 31 15-9-4-18-10-28-12-3 0-11-3-8-7 2-7 8-12 11-19 6-1 8-7 14-6 6 3 10-5 16-3Z"/>
  <path fill="#513f49" stroke="#513f49" stroke-width=".1" d="M396 274c20 3 15 25 21 38-3 15 0 31-2 46 2 8-3 16 1 23-3 8-1 16-4 24 3 9 0 17-2 26-4 13 1 28-4 40 1 10-4 20-1 30-2 8-6 16-2 25-11 5-25 4-37 5 3-18 9-35 13-52 0-10 7-20 7-31 4-14 5-29 8-43 3-43 8-87 2-131Z"/>
  <path fill="#5c543c" stroke="#5c543c" stroke-width=".1" d="M95 279v-3c11 12 25 21 41 25 24 5 48 12 70 24l-2 1c-24-14-51-18-76-26-13-4-24-12-33-21Z"/>
  <path fill="#a79a84" stroke="#a79a84" stroke-width=".1" d="m252 278 1 4c-2-1-1-3-1-4Z"/>
  <path fill="#729067" stroke="#729067" stroke-width=".1" d="M94 282c-1-1 0-2 1-3 9 9 20 17 33 21 25 8 52 12 76 26l5 3c-7 3-7 15-17 10 6 2 9 10 6 15-2-3-7-8-6 1 0 4-5 3-8 4 0 4 5 4 5 8-5-2-4 4-8 5-4-2-2-6 0-9-1-3-5-1-7-1-3-5-3-11-8-14 0-3 2-5 3-8l-6-2c0 2 2 3 3 5-2 4-6 0-7-2-5-4-6-11-13-12-1-7 5-4 8-2 1-4 1-8-4-7 1-3-1-7-3-3-4 4-5-5 0-4l-6-5c1 5-12 6-5 1-2-5-18 0-15-9-5-4-13 2-16-5-2-6-9 5-7-2-2-4 3-11-4-11Z"/>
  <path fill="#beccb6" stroke="#beccb6" stroke-width=".1" d="M28 282v7c-2-1-2-5 0-7Z"/>
  <path fill="#75946c" stroke="#75946c" stroke-width=".1" d="M94 282c7 0 2 7 4 11-2 7 5-4 7 2 3 7 11 1 16 5-3 9 13 4 15 9-7 5 6 4 5-1l6 5c-5-1-4 8 0 4 2-4 4 0 3 3 5-1 5 3 4 7-3-2-9-5-8 2 7 1 8 8 13 12 1 2 5 6 7 2-1-2-3-3-3-5l6 2c-1 3-3 5-3 8 5 3 5 9 8 14 2 0 6-2 7 1-2 3-4 7 0 9 4-1 3-7 8-5 0-4-5-4-5-8 3-1 8 0 8-4-1-9 4-4 6-1 3-5 0-13-6-15 10 5 10-7 17-10l2 1c-3 6-10 9-6 18l1 9-11 9c-5 5-14 9-15 17 4 5 1 12-6 11l-2-5-1-9c-2-7 0-15-5-21-5-5-7-12-12-17-3 8-4 16-8 23-2 2 0 4 1 5l7 7c6 11 13 23 24 29 1 4 0 7-1 10l-10-11c-1-10-15-13-16-24-4-6-13-6-18-12s-13-10-20-13c-4-1-9-4-7 2-1-1-1-6-3-3l2 13c-4 1-5 8-10 9-1-3-2-7-4-2l-1 1 1-7c-1 1-7-3-6 1l-1-1c-2-3-4 4-7 0-3 1 2 4 2 5-4 6 1 13-5 18-2 8-8-6-8 2-4-8-11-3-13 3 0-4-6-3-9-5-4 5 6 5 8 8h-8c0 2 2 5-1 6-3-1 0-7-3-8l-4 2-1-11v-7l-1-8v-14l-1-7v-7l-1-7v-6l-1-7v-7l-1-6v-2c2-2 5-5 2-8 2 0 5-3 6 0 1 4 8-2 6 4 8 6 18 2 25 3 3-2 8-2 4-5 1-4-6-6-2-8 7-3 11-10 17-14 3 1 11 4 6-1Z"/>
  <path fill="#f3e2d1" stroke="#f3e2d1" stroke-width=".1" d="M287 287c1-2 2-6 4-3 16 14 34 25 52 37 6 4 10 11 17 14 2 7-1 16 4 23 0 4-1 8 1 11-4 24 2 49-5 73-7 6-2 16-8 22-3 8-4 15-4 23-7 9-7 20-10 30 1 6-6 10-2 15l-9-1c8-5 5-17 7-26 4-13 12-26 10-41 4-7 7-15 8-23 1-1 3-3 2-5-4-5 3-12 0-17 2-9 8-20 3-30-1-5 2-11 1-17 3-6-3-13-2-20l-6-2c1-10-1-23-11-28l-14-10c-7-1-16-4-19-12-2 0-10-6-8-1 3 24 8 47 6 71 2 16 0 32-4 48-2 6 2 13-2 18-4 6-3 16-10 19l-2-5 7-10c9-31 8-64 6-96-2-8 1-18-7-24 1-4 0-8 2-12-4-6-6-13-7-21Z"/>
  <path fill="#5c4c35" stroke="#5c4c35" stroke-width=".1" d="M416 283c16 6 34 11 48 22 16 15 38 22 56 34l-1 1c-16-10-34-16-49-27-8-8-18-13-28-18-9-4-18-6-26-11v-1Z"/>
  <path fill="#fbefd6" stroke="#fbefd6" stroke-width=".1" d="M416 293v-9c8 5 17 7 26 11 10 5 20 10 28 18 15 11 33 17 49 27 5 3 7 9 7 15v10c-2 23-11 46-27 63-3 3-6 6-10 7-11-1-20-10-31-11-6 1-5-5-7-8v24l-1 6c-1 14-4 27-8 40-4 10-12 18-16 28 5-1 8-16 13-8 0 3 1 8-2 10l-29 11c-2 1-2-1-1-3 11-15 16-34 23-51a320 320 0 0 0 20-65c13 6 26 17 41 17 4-1 6-6 9-9 9-11 14-26 13-41 1-7-4-13-2-20-4 0-8-1-9-5l-22-6c-5-1-9-6-15-4-4-2-6-6-9-9-3 0-3 3-5 4l-3-13c-1-4-3 0-1 2 1 8 3 15 3 23v12c-1 9 1 19-1 29a124 124 0 0 0-1-21l-1-4c-2-19-7-38-13-56a556 556 0 0 1 12 70v29c0 11-3 22-7 33l-7-16c-1-12-2-24-6-35-1-10 1-20-1-30a152 152 0 0 1-1-10v-4c0-5-3-8-2-2-4-7 0-16-3-24v-1l-1-8-1-12c0-1 1-3-1-4Z"/>
  <path fill="#ecdacb" stroke="#ecdacb" stroke-width=".1" d="M187 290c5 2 7-5 11-4 10 1 21-1 30 5 1 4 5 14 5 5l9 33c-12 2-23-7-34-12-8-8-20-12-31-15-5-6 4-12 10-12Z"/>
  <path fill="#aa988b" stroke="#aa988b" stroke-width=".1" d="M416 293c2 1 1 3 1 4l-1-4Z"/>
  <path fill="#b8c8b0" stroke="#b8c8b0" stroke-width=".1" d="M29 294v7c-2-1-2-5 0-7Z"/>
  <path fill="#efddcd" stroke="#efddcd" stroke-width=".1" d="M298 299c-2-5 6 1 8 1 3 8 12 11 19 12l14 10c10 5 12 18 11 28l6 2c-1 7 5 14 2 20 1 6-2 12-1 17 5 10-1 21-3 30 3 5-4 12 0 17 1 2-1 4-2 5-1 8-4 16-8 23 2 15-6 28-10 41-2 9 1 21-7 26l-4-1-7-4c4-3 5-8 9-10 5-10 3-21 3-32 8-6 4-17 10-23-1-12 16-20 6-33 3-8-8 0-6-5 0-4 4-2 6-4 2-5-10-4-5-7 11-3 11-15 10-24-2-2 2-9-3-7-6 0 5-5 0-5-7-4 6-12-3-13 3-3 4-8-1-11 0-6 3-15-5-19-4-2-13-5-10-10 2-4-6-4-9-2-1-2-4-6-5-3-1 5-4 1-7 1l1 12c4 11 1 23 5 33l-3 27c2 5-2 11 0 17 4 10-8 18-4 28 0 3 4 6 0 7-7 3-7 11-9 17-3 2 1 7-4 8l-4-13c7-3 6-13 10-19 4-5 0-12 2-18 4-16 6-32 4-48 2-24-3-47-6-71Z"/>
  <path fill="#8b7466" stroke="#8b7466" stroke-width=".1" d="m388 298 2-1-1 25-1-24Z"/>
  <path fill="#b3a28c" stroke="#b3a28c" stroke-width=".1" d="M256 302Z"/>
  <path fill="#a59272" stroke="#a59272" stroke-width=".1" d="M433 308c-3-3 1-5 1-1l-1 1Z"/>
  <path fill="#bbcbb5" stroke="#bbcbb5" stroke-width=".1" d="m29 307 1 4v2c-2-1-1-4-1-6Z"/>
  <path fill="#553a2a" stroke="#553a2a" stroke-width=".1" d="m433 308 1-1a313 313 0 0 1 14 68l1 13v5l1 6v9a125 125 0 0 0-2 10c-4 19-10 37-18 55-7 17-12 36-23 51v-1c11-28 24-55 32-84 4-11 7-22 7-33 1-6 2-12 0-18v-11c0-2 1-4-1-5a601 601 0 0 1-1-10c-2-18-7-36-11-54Z"/>
  <path fill="#a79279" stroke="#a79279" stroke-width=".1" d="m418 309 1 8-1-8Z"/>
  <path fill="#c9cfc6" stroke="#c9cfc6" stroke-width=".1" d="M575 316h1c-1 3 2 11-1 13v-13Z"/>
  <path fill="#ecd9ca" stroke="#ecd9ca" stroke-width=".1" d="M313 318c1-3 4 1 5 3 3-2 11-2 9 2-3 5 6 8 10 10 8 4 5 13 5 19 5 3 4 8 1 11 9 1-4 9 3 13 5 0-6 5 0 5 5-2 1 5 3 7 1 9 1 21-10 24-5 3 7 2 5 7-2 2-6 0-6 4-2 5 9-3 6 5 10 13-7 21-6 33-6 6-2 17-10 23 0 11 2 22-3 32-4 2-5 7-9 10l7 4c-9-2-19-4-28-8l-23-25c0-11 3-22 6-32 4-2 7-5 7-9l7 15c1 5 5 2 1 0l-1-3c5-1 1-6 4-8 2-6 2-14 9-17 4-1 0-4 0-7-4-10 8-18 4-28-2-6 2-12 0-17l3-27c-4-10-1-22-5-33l-1-12c3 0 6 4 7-1Z"/>
  <path fill="#f0dfd0" stroke="#f0dfd0" stroke-width=".1" d="M419 318c3 8-1 17 3 24l1 4v39c-2 2-2 5-1 7v9l-1 10v4c0 2-3 14 1 11l1-13c2-2 2-5 1-7v-5l1-4v-9h1c4 11 5 23 6 35l7 16c-8 29-21 56-32 84h-1l1-19c2-3 2-5 1-7l2-23c2-1 1-3 1-5l1-15 1-6a1493 1493 0 0 0 5-65v-10l1-9v-46Z"/>
  <path fill="#b6c7b2" stroke="#b6c7b2" stroke-width=".1" d="M31 319v7c-2-1-2-5 0-7Z"/>
  <path fill="#aea389" stroke="#aea389" stroke-width=".1" d="M447 324c-2-2 0-6 1-2l-1 2Z"/>
  <path fill="#9d8f77" stroke="#9d8f77" stroke-width=".1" d="m258 322 1 9-1-9Z"/>
  <path fill="#523825" stroke="#523825" stroke-width=".1" d="m447 324 1-2 3 13 2 18v18c0 4 0 9-2 12v-24l-1-12c0-8-2-15-3-23Z"/>
  <path fill="#bda78c" stroke="#bda78c" stroke-width=".1" d="m262 327 1 6-1-6Z"/>
  <path fill="#cbdcf0" stroke="#cbdcf0" stroke-width=".1" d="M211 330c4 2 9 2 10 7-3 6-11 7-12 13l-4-2c-4-9 3-12 6-18Z"/>
  <path fill="#f4e3d0" stroke="#f4e3d0" stroke-width=".1" d="M451 335c2-1 2-4 5-4 3 3 5 7 9 9 6-2 10 3 15 4l22 6c1 4 5 5 9 5-2 7 3 13 2 20 1 15-4 30-13 41 8-12 8-29-4-38-3-3-5-17-11-9-9-7-21-3-30-10 0 3 2 7-1 9 0-5 1-10-1-15l-2-18Z"/>
  <path fill="#b8c9b3" stroke="#b8c9b3" stroke-width=".1" d="M32 333v6c-2 0-2-5 0-6Z"/>
  <path fill="#e8d7c7" stroke="#e8d7c7" stroke-width=".1" d="M222 335c9 4 18 10 28 12 8 24 14 49 17 75-1 3-1 8-5 10-9-34-28-64-40-97Z"/>
  <path fill="#9fbb9b" stroke="#9fbb9b" stroke-width=".1" d="m221 337 6 19c-1 4-2 9-5 12l-20 9c-2 1-4 4-2 6l6-3c4 1 5 7 10 5 0 7-5 13-12 13-7 1-4 9-4 14 4 8 7 17 6 26-3-2-2-8-6-10-7-4-3-13-6-19-1-5-7-7-6-13-5 2-10 2-14-2 7 1 10-6 6-11 1-8 10-12 15-17l11-9c5 3 3-3 3-7 1-6 9-7 12-13Z"/>
  <path fill="#b7a787" stroke="#b7a787" stroke-width=".1" d="M263 338c2 1 1 3 1 5-2-1-1-3-1-5Z"/>
  <path fill="#a58e7c" stroke="#a58e7c" stroke-width=".1" d="M387 343c0-2-1-4 1-5 0 2 1 4-1 5Z"/>
  <path fill="#86745e" stroke="#86745e" stroke-width=".1" d="M422 342c-1-6 2-3 2 2l-1 2-1-4Z"/>
  <path fill="#5a3d22" stroke="#5a3d22" stroke-width=".1" d="m519 340 1-1c5 1 7 5 8 9 15 4 30 7 44 15v2c-13-8-29-11-44-15v5c1 16-2 32-9 47-5 6 7 4 11 6l29 3 8 1h3v2c-18 1-36-3-54-6l-8 13c-6 7-13 18-23 16l4-2c4-1 7-4 10-7a109 109 0 0 0 27-73c0-6-2-12-7-15Z"/>
  <path fill="#b6c0b2" stroke="#b6c0b2" stroke-width=".1" d="m574 350 1-11c1 4 0 8-1 11Z"/>
  <path fill="#f4eae5" stroke="#f4eae5" stroke-width=".1" d="M154 342c5 5 7 12 12 17 5 6 3 14 5 21l1 9 2 5c4 4 9 4 14 2-1 6 5 8 6 13-2 8-9 9-14 12l-3-5c1-3 2-6 1-10-11-6-18-18-24-29-1-3-4-6-7-7-1-1-3-3-1-5 4-7 5-15 8-23Z"/>
  <path fill="#48301f" stroke="#48301f" stroke-width=".1" d="m423 346 1-2v4l1 4v45c-2 1-1 3-1 4v5c-2 2-2 5-1 7l-1 13a298 298 0 0 1-1-15l1-10v-9c2-2 2-5 1-7v-39Z"/>
  <path fill="#503f48" stroke="#503f48" stroke-width=".1" d="M390 345h2c2 43-6 85-15 127-8 19-10 39-19 58-2 3-7 0-10 1 4-20 10-40 15-59 8-43 21-84 27-127Z"/>
  <path fill="#bacab8" stroke="#bacab8" stroke-width=".1" d="M33 346v7c-2-1-2-5 0-7Z"/>
  <path fill="#b2a48d" stroke="#b2a48d" stroke-width=".1" d="m450 347 1 12h-1v-12Z"/>
  <path fill="#bdccc3" stroke="#bdccc3" stroke-width=".1" d="m205 348 4 2c0 4 2 10-3 7l-1-9Z"/>
  <path fill="#ab9681" stroke="#ab9681" stroke-width=".1" d="M424 348c2 1 1 3 1 4l-1-4Z"/>
  <path fill="#efb27a" stroke="#efb27a" stroke-width=".1" d="M528 350c15 4 31 7 44 15l1 1c0 15-1 31-3 46h-3l-8-1-29-3c1-7 9-13 11-21 6-13-4-26-13-35v-2Z"/>
  <path fill="#c8825a" stroke="#c8825a" stroke-width=".1" d="M528 352c9 9 19 22 13 35-2 8-10 14-11 21-4-2-16 0-11-6 4 3 7-2 11-3 9-5 9-17 7-26 0-8-10-10-9-18v-3Z"/>
  <path fill="#cbb29f" stroke="#cbb29f" stroke-width=".1" d="M453 353c2 5 1 10 1 15l-1 3v-18Z"/>
  <path fill="#5c4d39" stroke="#5c4d39" stroke-width=".1" d="M103 355c2-3 2 2 3 3 7 30 9 62 18 92 13 31 16 65 29 96l-3-1v-1l-5-14c-8-21-9-44-18-65-5-15-9-30-12-46-3-17-4-35-10-51l-2-13Z"/>
  <path fill="#fcf0d5" stroke="#fcf0d5" stroke-width=".1" d="M106 358c-2-6 3-3 7-2 7 6 13 13 21 18l28 28c6 8 14 16 18 26 7 17 17 34 27 49 14 13 34 19 53 18v4l1 5c1 5 5 9 9 12v14l-4-3c-5-5-14 1-19-5-3-6-10-4-14-8-2-3-7 3-8-1-3-3-8-3-8-9-1-3-6 4-7-1-3-6-13-6-17-12-3-7-5-14-9-20 1-6-8-7-5-13-8-6-2-19-11-25-2-5-6-3-7 1l-24-48c-1-2-2-5-4-6 0 3 2 5 3 8l20 45c-7-3-8-13-14-17-4 2-2 8-2 11 2 4-2 8 0 12 2 9 7 16 11 24-6 2-6 9-2 12 8-2 3 2 3 5 1-1 3-3 5-1 1 3-5 4-2 7 5 8 16 15 14 25-5 4-19 6-13 15 4 7 3 18 11 22l-14-2c-13-31-16-65-29-96-9-30-11-62-18-92Z"/>
  <path fill="#81715d" stroke="#81715d" stroke-width=".1" d="M526 355v10-10Z"/>
  <path fill="#ba7350" stroke="#ba7350" stroke-width=".1" d="M528 355c-1 8 9 10 9 18 2 9 2 21-7 26-4 1-7 6-11 3 7-15 10-31 9-47Z"/>
  <path fill="#6d7e5e" stroke="#6d7e5e" stroke-width=".1" d="M113 356c7 3 15 7 20 13s14 6 18 12c1 11 15 14 16 24l-4-4-26-27h-3c-8-5-14-12-21-18Z"/>
  <path fill="#95b590" stroke="#95b590" stroke-width=".1" d="m227 356 6 13c-3 4-1 10-4 15-2 6-8 10-9 17-4-1-3 0-1 2-2 4-5 7-3 12-7 9-9 22-5 33-5 0-4-6-5-10 1-9-2-18-6-26 0-5-3-13 4-14 7 0 12-6 12-13-5 2-6-4-10-5l-6 3c-2-2 0-5 2-6l20-9c3-3 4-8 5-12Z"/>
  <path fill="#7d6555" stroke="#7d6555" stroke-width=".1" d="M423 356v21-21Z"/>
  <path fill="#9c8271" stroke="#9c8271" stroke-width=".1" d="M425 358c2 10 0 20 1 30h-1v-30Z"/>
  <path fill="#eddbcc" stroke="#eddbcc" stroke-width=".1" d="M450 359h1v24c2-3 2-8 2-12l1-3c3-2 1-6 1-9 9 7 21 3 30 10 6-8 8 6 11 9 12 9 12 26 4 38-3 3-5 8-9 9-15 0-28-11-41-17v-9l-1-6v-5c2-10 0-20 1-29Z"/>
  <path fill="#c0d0bc" stroke="#c0d0bc" stroke-width=".1" d="M34 360v7c-2-1-2-5 0-7Z"/>
  <path fill="#a68f7b" stroke="#a68f7b" stroke-width=".1" d="m444 362 1 4c-2-1-1-3-1-4Z"/>
  <path fill="#aa997e" stroke="#aa997e" stroke-width=".1" d="m447 363 1 4c-2-1-1-3-1-4Z"/>
  <path fill="#ab9b89" stroke="#ab9b89" stroke-width=".1" d="m263 364 1 4-1-4Z"/>
  <path fill="#aa917d" stroke="#aa917d" stroke-width=".1" d="m418 373 1-9-1 9Z"/>
  <path fill="#6c8b6a" stroke="#6c8b6a" stroke-width=".1" d="M77 369c3 4 5-3 7 0-7 7 2 17-3 25-5 10 0 20-5 30-3 5-6 9-7 15-9-4-12-20-24-14-3-1-5-5-9-5v-20l4-2c3 1 0 7 3 8 3-1 1-4 1-6h8c-2-3-12-3-8-8 3 2 9 1 9 5 2-6 9-11 13-3 0-8 6 6 8-2 6-5 1-12 5-18 0-1-5-4-2-5Z"/>
  <path fill="#ebe9d2" stroke="#ebe9d2" stroke-width=".1" d="M85 370c-1-4 5 0 6-1l-1 7-5 9v-15Z"/>
  <path fill="#6a8464" stroke="#6a8464" stroke-width=".1" d="M95 377c5-1 6-8 10-9 6 16 7 34 10 51-16-3-7 19-12 27 0-10 0-20 2-30 0-3 3-8 0-10a60 60 0 0 0-16 51c-3 2-6-1-8-3l3-18c1-18 9-35 10-52-1-3 1-8-3-9 2-5 3-1 4 2Z"/>
  <path fill="#736045" stroke="#736045" stroke-width=".1" d="M81 394c5-8-4-18 3-25l1 1v15l5-9 1-1c4 1 2 6 3 9-1 17-9 34-10 52l-3 18c2 2 5 5 8 3 0 6-11 0-10-5 0-5 3-16-4-17-5 0-4 6-8 7-5-3-8-9-12-13-3 3-11 7-7 13 5 10 14 17 20 26 1 9 3 20-4 26 3-11 6-24-4-33-12-9-16-25-24-37v-4c4 0 6 4 9 5 12-6 15 10 24 14 1-6 4-10 7-15 5-10 0-20 5-30Z"/>
  <path fill="#89ac84" stroke="#89ac84" stroke-width=".1" d="m233 369 2 5c-5 5-4 14-8 21l-3 12c-2 6-7 11-10 17-3 9-2 18-1 26l-2-2c-4-11-2-24 5-33-2-5 1-8 3-12-2-2-3-3 1-2 1-7 7-11 9-17 3-5 1-11 4-15Z"/>
  <path fill="#bac0aa" stroke="#bac0aa" stroke-width=".1" d="M147 370c3 1 6 4 7 7l-7-7Z"/>
  <path fill="#bda392" stroke="#bda392" stroke-width=".1" d="M445 372c2 1 1 3 1 5-2-1-1-3-1-5Z"/>
  <path fill="#6a553e" stroke="#6a553e" stroke-width=".1" d="M134 374h3l26 27-1 1-28-28Z"/>
  <path fill="#c7d3c4" stroke="#c7d3c4" stroke-width=".1" d="m34 374 1 8c-2-1-1-6-1-8Z"/>
  <path fill="#7c9f73" stroke="#7c9f73" stroke-width=".1" d="M227 395c4-7 3-16 8-21l2 3-4 8c1 9-5 17-6 26-1 3-1 7-5 8-9 10-5 24-7 36l-2-5c-1-8-2-17 1-26 3-6 8-11 10-17l3-12Z"/>
  <path fill="#c2af97" stroke="#c2af97" stroke-width=".1" d="m448 375 1 13-1-13Z"/>
  <path fill="#71926a" stroke="#71926a" stroke-width=".1" d="m233 385 4-8 10 21-5 24c-3 2-3 6-8 6 0 1-5 4-2 5 2 1 4-3 6-1l-3 7-6-3c-2 7-6 12-9 18 4 5 4 11 8 16-3 5 4 13-2 16l-4-2c2-2 2-4 1-7-2-4 0-10-3-13-1-3-2 0-3-1l-2-8c2-12-2-26 7-36 4-1 4-5 5-8 1-9 7-17 6-26Z"/>
  <path fill="#927b60" stroke="#927b60" stroke-width=".1" d="M133 380c2 1 3 4 4 6l-1 2c-1-3-3-5-3-8Z"/>
  <path fill="#acbab0" stroke="#acbab0" stroke-width=".1" d="m171 380 1 9-1-9Z"/>
  <path fill="#a78d7d" stroke="#a78d7d" stroke-width=".1" d="M417 390c-1-2-1-5 1-7 1 2 1 5-1 7Z"/>
  <path fill="#a79282" stroke="#a79282" stroke-width=".1" d="M422 392c-1-2-1-5 1-7 1 2 1 5-1 7Z"/>
  <path fill="#5d422c" stroke="#5d422c" stroke-width=".1" d="m136 388 1-2 24 48 3 9-1 2-7-12-20-45Z"/>
  <path fill="#9a8b78" stroke="#9a8b78" stroke-width=".1" d="M446 388c2 6 1 12 0 18v-18Z"/>
  <path fill="#abbba8" stroke="#abbba8" stroke-width=".1" d="m35 389 1 11v24l-1 3v-38Z"/>
  <path fill="#a99382" stroke="#a99382" stroke-width=".1" d="m449 393 1 6-1-6Z"/>
  <path fill="#a68f7a" stroke="#a68f7a" stroke-width=".1" d="M424 401c0-1-1-3 1-4l-1 4Z"/>
  <path fill="#886f5f" stroke="#886f5f" stroke-width=".1" d="m421 411 1-10-1 10Z"/>
  <path fill="#ae9179" stroke="#ae9179" stroke-width=".1" d="M248 404c-1-3 3-3 2 0h-2Z"/>
  <path fill="#6e563e" stroke="#6e563e" stroke-width=".1" d="M89 457c-4-18 4-38 16-51 3 2 0 7 0 10-2 10-2 20-2 30l-2 17c-7 10-14 20-13 33 2 13 4 27 3 41h-1c-7-1-17-2-22-8 0-9-9-14-7-23l3-12c7-6 5-17 4-26-6-9-15-16-20-26-4-6 4-10 7-13 4 4 7 10 12 13 4-1 3-7 8-7 7 1 4 12 4 17-1 5 10 11 10 5Z"/>
  <path fill="#907a69" stroke="#907a69" stroke-width=".1" d="M423 413c-1-2-1-5 1-7 1 2 1 5-1 7Z"/>
  <path fill="#c4a78d" stroke="#c4a78d" stroke-width=".1" d="M516 408c18 3 36 7 54 6l-2 15-26 3c-12 0-24-6-34-11l8-13Z"/>
  <path fill="#d2ebf8" stroke="#d2ebf8" stroke-width=".1" d="M194 409c3 6-1 15 6 19 4 2 3 8 6 10 1 4 0 10 5 10-1 6 0 12 6 15 1 1 2-2 3 1 0 4-3 11 3 13 1 3 1 5-1 7-11-3-17-12-21-22-9-13-15-26-21-41 5-3 12-4 14-12Z"/>
  <path fill="#a37349" stroke="#a37349" stroke-width=".1" d="m559 411 8 1-8-1Z"/>
  <path fill="#b4a28c" stroke="#b4a28c" stroke-width=".1" d="m448 418 1-4-1 4Z"/>
  <path fill="#b29e8c" stroke="#b29e8c" stroke-width=".1" d="M422 426c-4 3-1-9-1-11l1 11Z"/>
  <path fill="#fcebd1" stroke="#fcebd1" stroke-width=".1" d="M140 427c0-3-2-9 2-11 6 4 7 14 14 17l7 12 3 4-2-6-3-9c1-4 5-6 7-1 9 6 3 19 11 25-3 6 6 7 5 13 4 6 6 13 9 20 4 6 14 6 17 12 1 5 6-2 7 1 0 6 5 6 8 9 1 4 6-2 8 1 4 4 11 2 14 8 5 6 14 0 19 5-9 1-19 0-29-2-12 1-24 0-34-8-4-3-10 1-13-3-6-6-11 6-18 4-6 0-19-3-16 8-6-9 8-11 13-15 2-10-9-17-14-25-3-3 3-4 2-7-2-2-4 0-5 1 0-3 5-7-3-5-4-3-4-10 2-12-4-8-9-15-11-24-2-4 2-8 0-12Z"/>
  <path fill="#5f4c3a" stroke="#5f4c3a" stroke-width=".1" d="M451 416c2 3 1 9 7 8 11 1 20 10 31 11l-4 2c-11-3-20-11-32-11 0 13-1 26-4 39-2 11-3 24-11 33-2 2 1 4 2 5v1l-1 2c-5-8-8 7-13 8 4-10 12-18 16-28a205 205 0 0 0 9-46v-24Z"/>
  <path fill="#62866c" stroke="#62866c" stroke-width=".1" d="M103 446c5-8-4-30 12-27 3 16 7 31 12 46 9 21 10 44 18 65-7 3-14 2-22 3 0-3-1-7-5-7-3 2-5 6-9 6l-12-8c-5-16-10-34-1-49l5-12 2-17Z"/>
  <path fill="#73876b" stroke="#73876b" stroke-width=".1" d="M485 437c10 2 17-9 23-16 10 5 22 11 34 11l1 14c3 2 6 4 5 8-22 3-45 4-67 8-11-1-21 6-32 3 3-13 4-26 4-39 12 0 21 8 32 11Z"/>
  <path fill="#678a69" stroke="#678a69" stroke-width=".1" d="M234 428c5 0 5-4 8-6l-4 33c-3 15 11 22 19 32-6 3-12 4-18 4l-13-5c6-3-1-11 2-16-4-5-4-11-8-16 3-6 7-11 9-18l6 3 3-7c-2-2-4 2-6 1-3-1 2-4 2-5Z"/>
  <path fill="#63896e" stroke="#63896e" stroke-width=".1" d="M36 424c8 12 12 28 24 37 10 9 7 22 4 33l-3 12-13 10 3 2v3c-14-10-18-27-17-43v-30l1-10v-11l1-3Z"/>
  <path fill="#916159" stroke="#916159" stroke-width=".1" d="m542 432 26-3-2 15-23 2-1-14Z"/>
  <path fill="#b6a28b" stroke="#b6a28b" stroke-width=".1" d="m242 437 1-4c0 1 1 3-1 4Z"/>
  <path fill="#b6c8bc" stroke="#b6c8bc" stroke-width=".1" d="M34 448c1-2-2-9 1-10l-1 10Z"/>
  <path fill="#aa8b7d" stroke="#aa8b7d" stroke-width=".1" d="m241 444 1-4-1 4Z"/>
  <path fill="#b8ad94" stroke="#b8ad94" stroke-width=".1" d="M450 446Z"/>
  <path fill="#927860" stroke="#927860" stroke-width=".1" d="m164 443 2 6-3-4 1-2Z"/>
  <path fill="#c7a892" stroke="#c7a892" stroke-width=".1" d="m543 446 23-2c-1 9-1 19-3 28-4-1-8-1-11 1-2-5 5-20-4-19 1-4-2-6-5-8Z"/>
  <path fill="#aac5b7" stroke="#aac5b7" stroke-width=".1" d="m211 448 2 2 2 5 2 8c-6-3-7-9-6-15Z"/>
  <path fill="#a49480" stroke="#a49480" stroke-width=".1" d="m412 454 1-6-1 6Z"/>
  <path fill="#beae9a" stroke="#beae9a" stroke-width=".1" d="M241 463c-2-4 0-9 0-13v13Z"/>
  <path fill="#8e5c57" stroke="#8e5c57" stroke-width=".1" d="M481 462c22-4 45-5 67-8 9-1 2 14 4 19v2c-1 5-1 12-7 14-10 6-21 0-32 5-11 1-22 4-33 2-4 0-7 5-11 2-10-2-19 5-29 5-1-1-4-3-2-5 8-9 9-22 11-33 11 3 21-4 32-3Z"/>
  <path fill="#b2c5b8" stroke="#b2c5b8" stroke-width=".1" d="M34 478c-1-4-2-17 0-21v21Z"/>
  <path fill="#7b6649" stroke="#7b6649" stroke-width=".1" d="M88 496c-1-13 6-23 13-33l-5 12c-9 15-4 33 1 49l1 5c-6 0-1 9-7 8 1-14-1-28-3-41Z"/>
  <path fill="#8cac92" stroke="#8cac92" stroke-width=".1" d="M220 464c3 3 1 9 3 13-6-2-3-9-3-13Z"/>
  <path fill="#a7927f" stroke="#a7927f" stroke-width=".1" d="M410 474c0-2-1-4 1-5 0 2 1 4-1 5Z"/>
  <path fill="#9e8a76" stroke="#9e8a76" stroke-width=".1" d="M292 471h1c4 2 0 5-1 0Z"/>
  <path fill="#eedcc1" stroke="#eedcc1" stroke-width=".1" d="M552 473c3-2 7-2 11-1 1 11-4 23-11 31v-30Z"/>
  <path fill="#9a6960" stroke="#9a6960" stroke-width=".1" d="M545 489c6-2 6-9 7-14v14c-1 2-1 7-6 4l-105 12-1-1v-1c10 0 19-7 29-5 4 3 7-2 11-2 11 2 22-1 33-2 11-5 22 1 32-5Z"/>
  <path fill="#7c5d52" stroke="#7c5d52" stroke-width=".1" d="M239 491c6 0 12-1 18-4l4 7c-7-1-15-1-22-3Z"/>
  <path fill="#c7a994" stroke="#c7a994" stroke-width=".1" d="M546 493c5 3 5-2 6-4v14c-10 10-16 27-31 29-19 7-37 18-57 19-8 0-16 2-24 1 0-16-2-31 1-47l105-12Z"/>
  <path fill="#a0907c" stroke="#a0907c" stroke-width=".1" d="M407 504c-1-2-1-5 1-7 1 2 1 4-1 7Z"/>
  <path fill="#ac9384" stroke="#ac9384" stroke-width=".1" d="M260 499c2 1 1 3 1 5l-1-5Z"/>
  <path fill="#f8e8e6" stroke="#f8e8e6" stroke-width=".1" d="m48 516 13-10c-2 9 7 14 7 23-4 1-9-3-13-5 0-3-1-5-4-6l-3-2Z"/>
  <path fill="#f4e3d1" stroke="#f4e3d1" stroke-width=".1" d="M172 518c7 2 12-10 18-4 3 4 9 0 13 3 10 8 22 9 34 8 10 2 20 3 29 2l4 3v7l-1 4v1l-6-4c-4-2-10 2-14-1-5 0-10-6-15-4-17-1-33-12-50-9-6-2-21-5-22 6 5 8 13 15 21 20l-16-2c-8-4-7-15-11-22-3-11 10-8 16-8Z"/>
  <path fill="#9cb18a" stroke="#9cb18a" stroke-width=".1" d="M51 518c3 1 4 3 4 6-1-1-4-1-4-3v-3Z"/>
  <path fill="#eedccd" stroke="#eedccd" stroke-width=".1" d="M162 530c1-11 16-8 22-6 17-3 33 8 50 9 5-2 10 4 15 4 4 3 10-1 14 1l6 4-1 10-1 3c-28-2-56-1-84-5-8-5-16-12-21-20Z"/>
  <path fill="#eee9d3" stroke="#eee9d3" stroke-width=".1" d="m97 524 12 8-4 2c-4 0-6-2-7-5l-1-5Z"/>
  <path fill="#8e7c6c" stroke="#8e7c6c" stroke-width=".1" d="M408 527c-4 2-3-1-2-4h1v1c-1 2-1 4 1 3Z"/>
  <path fill="#a1b577" stroke="#a1b577" stroke-width=".1" d="M109 532c4 0 6-4 9-6 4 0 5 4 5 7l-18 1 4-2Z"/>
  <path fill="#523f49" stroke="#523f49" stroke-width=".1" d="M273 526c6 1 11 4 17 6 28 9 57 13 86 10 10-2 21 2 30-4 10 0 19-9 29-7-12 16-33 16-51 21-28 3-56 4-84-1-3 1-7-3-9 1 21 8 45 6 67 7v1h-57l-4-1c-1 0-5 1-4-1h2c-5-4-11-6-17-8-9-5-3-16-5-24Z"/>
  <path fill="#92665b" stroke="#92665b" stroke-width=".1" d="M91 537c6 1 1-8 7-8 1 3 3 5 7 5l18-1c8-1 15 0 22-3l5 14h-9l-51-7h1Z"/>
  <path fill="#a9927f" stroke="#a9927f" stroke-width=".1" d="m269 541 1-4-1 4Z"/>
  <path fill="#c8a899" stroke="#c8a899" stroke-width=".1" d="M141 544h9v1c-2-1-8 2-9-1Z"/>
  <path fill="#a69084" stroke="#a69084" stroke-width=".1" d="m267 555 1-3v4l-1-1Z"/>
  <path fill="#afa6a9" stroke="#afa6a9" stroke-width=".1" d="M415 554h10c-3 2-7 2-10 0Z"/>
  <path fill="#b3a9a9" stroke="#b3a9a9" stroke-width=".1" d="m272 556 5 1c-1 1-5 1-5-1Z"/>
  <path fill="#a4999e" stroke="#a4999e" stroke-width=".1" d="m400 557 5-1c0 2-4 2-5 1Z"/>
  <path fill="#a09799" stroke="#a09799" stroke-width=".1" d="m282 557 6 1c-1 1-5 1-6-1Z"/>
  <path fill="#a4999f" stroke="#a4999f" stroke-width=".1" d="M387 557h7c-1 2-5 2-7 0Z"/>
  <path fill="#a599a0" stroke="#a599a0" stroke-width=".1" d="M374 558h7c-1 2-5 2-7 0Z"/>
  <path fill="#b4aaaa" stroke="#b4aaaa" stroke-width=".1" d="m297 559 4 1c-1 1-4 1-4-1Z"/>
  <path fill="#a0939d" stroke="#a0939d" stroke-width=".1" d="M358 559h9c0 3-7 0-9 1v-1Z"/>
  <path fill="#beb7bc" stroke="#beb7bc" stroke-width=".1" d="M306 560h39c-10 1-29 3-39 0Z"/>
</svg>
