<svg xmlns="http://www.w3.org/2000/svg" viewBox="0 0 598 570">
  <path fill="#fff" stroke="#fff" stroke-width=".1" d="M0 0h598v570H0V0m343 14-19 2h-15c-12 0-24-2-36 0l-19 1c-9 0-17-2-26-1l-66 3-60 10c-7 2-14 5-22 6-8 2-16 5-22 11-3 3-7 5-9 9-7 13-10 27-13 42-3 8-4 18-4 27-1 13 1 26-1 39v16l1 19v13c0 9 0 18 2 26l1 16 2 29v2l2 18 2 37 1 1v13l2 19 1 30-1 15v24c-2 2-1 5-1 7v2l-1 16 3 23v4h1c3 15 17 26 31 30l3 2c5 2 10 5 16 5l41 5c5 2 9 2 14 2l2 1 39 5h2l20 2c19 1 39 1 58 3l42 5c19 2 37 0 56 0l10-1 34-3c6-1 13-2 19-1v-1h1l6-1 2-1h3c12 0 25 0 37-2 10-1 19-6 28-9l16-8c4-2 10-2 14-5 8-7 13-15 20-23 3-5 7-9 9-14l3-18 2-27h1l2-17c3-25 5-51 6-76l1-29a295 295 0 0 0 1-24l-1-34v-23l-2-14v-14h-1v-13l-2-19-1-10-1-14-5-30c0-5-1-9-3-13l-5-17a118 118 0 0 0-26-47c-6-5-11-12-18-15-5-3-11-4-17-5l-21-3-26-4-26-1-21-3c-3 1-7 0-10-1-4-1-8 2-12 1h-11c-5 1-10 0-14-1l-19 1Z"/>
  <path fill="#fdbcb2" stroke="#fdbcb2" stroke-width=".1" d="m343 14 19-1c4 1 9 2 14 1h11c4 1 8-2 12-1 3 1 7 2 10 1l21 3 26 1 26 4-2 11c-1 5-5 9-6 15 0 3-1 8-5 7l-21-6c2-3 3-7 6-9l10-2c-2-4-4-8-8-9l-7 2-12 3c-4 1-7 4-10 7l-6-2-4 4 6 5c-2 2-5 7-9 5-7-3-14-9-23-8-6 2-10 5-15 9a102 102 0 0 0-59-22c1-6 4-11 7-16l19-2Zm42 96 3-15c0 5 0 10-3 15Zm-140 74 2-1-3 4a332 332 0 0 1 1-3Z"/>
  <path fill="#feb8bc" stroke="#feb8bc" stroke-width=".1" d="M273 16c12-2 24 0 36 0l-1 13 2 4c-6 0-12 2-18 4l-6 5-3 2c-8-1-14 4-20 9l-11 16c-2-5 1-11 4-16l-3-5 2-6h-8l-5 7c-3 4-7 8-7 13-1 7 2 13 4 19l-12 8c-5 0-10-2-16-1-7 1-13 5-18 10-3 3-5 6-9 7-6 1-12 0-18-1-5-1-10 1-15-1-6-2-11-5-18-4-8 0-15 4-21 9-3 2-6 4-7 7-3 3-5 8-7 12l-5 1-1-6H76c-3-1-6 1-9 2l4 2-8 2-4-2-6 4c-3-1-5-3-8-3l-8-1-5-2c0-9 1-19 4-27 3-15 6-29 13-42 2-4 6-6 9-9 6-6 14-9 22-11 8-1 15-4 22-6l60-10 66-3c9-1 17 1 26 1l19-1Z"/>
  <path fill="#fde0d1" stroke="#fde0d1" stroke-width=".1" d="M309 16h15c-3 5-6 10-7 16l-7 1-2-4 1-13Z"/>
  <path fill="#fedecc" stroke="#fedecc" stroke-width=".1" d="m482 22 21 3c-2 0-5 0-7 2-3 4-6 9-7 14s5 9 3 14l-5 21c-8 2-16 6-19 14-4 11-4 24-1 36 2 5-5 6-7 10s-1 8 0 12c-8 2-15 2-22 5s-11 10-16 15c-6 4-10 10-11 16l2 14c-6 3-13 3-19 7-4 3-9 6-12 10-4 7-6 15-5 23-5-2-9-4-12-7 0-7 6-11 7-18l3-7-13-5c9-14 19-28 21-45l2-2c4 8-1 17 1 25l4 8 7 1 1-9-2-15c0-4 1-9 4-12l6-9-6-9v-10l2-7 1 8 4-14c0-3 2-6 1-10-2-9-7-16-12-24-5-9-12-17-20-23 5-4 9-7 15-9 9-1 16 5 23 8 4 2 7-3 9-5l-6-5 4-4 6 2c3-3 6-6 10-7l12-3 7-2c4 1 6 5 8 9l-10 2c-3 2-4 6-6 9l21 6c4 1 5-4 5-7 1-6 5-10 6-15l2-11Z"/>
  <path fill="#feb0a4" stroke="#feb0a4" stroke-width=".1" d="M496 27c2-2 5-2 7-2 6 1 12 2 17 5 7 3 12 10 18 15a118 118 0 0 1 26 47v1c-4-1-8-2-13-1l-13 2-13 4c-5 3-10 6-13 11l-7 10c6-1 11-6 17-8l14-3c7 0 12 2 18 4s11 8 18 10l5 30 1 14-1 11-9 3c-5 1-9-1-13-1h-12c-6 1-10 5-15 8-3 3-6 6-7 10-1 5-1 10-4 14l-21 19c-5 5-12 2-18 3-4 0-5 4-9 5l-11-1-4-9-9 3c-2 1-4-1-6-2l6-3-1-2c-6-2-11-5-16-9 3-1 5-3 5-6-6 1-10 5-15 9h-10c0-5-6-5-10-7l7-6h3l-1 4 2 1 8-5c0-8-5-14-4-22l9-15c5-5 9-12 16-15s14-3 22-5c-1-4-2-8 0-12s9-5 7-10c-3-12-3-25 1-36 3-8 11-12 19-14l5-21c2-5-4-9-3-14s4-10 7-14Z"/>
  <path fill="#462b28" stroke="#462b28" stroke-width=".1" d="m310 33 7-1a102 102 0 0 1 59 21c8 7 15 15 20 24 5 8 10 15 12 24 1 4-1 7-1 10l-4 14-1-8-2-22c-2-14-10-27-21-36s-23-17-37-20c-12-4-25-6-38-3l-18 6 6-5c6-2 12-4 18-4m93 68 2 11c0-4 0-7-2-11Z"/>
  <path fill="#785448" stroke="#785448" stroke-width=".1" d="M304 36c13-3 26-1 38 3 14 3 26 11 37 20s19 22 21 36l-1 4c-3-1-8-1-9-5l-4-7v7l-8 5-3-3c1-5 0-10-2-15l-3 10c-4-2-8-3-13-2l-2-2 2-4-5 4-1-1 2-4-3-1-4 4-8-1-1-3-13 5c-6 2-12 2-18 5-2 2-6 3-6 6 1 4 3 5 5 8-3-1-6-1-8-3-4-1-6-5-9-7l-9 1c-3 0-7 1-9 3l-7 8c-7-1-12-4-18-6 1-8 2-16 5-23 5-10 11-21 20-28 4-3 9-3 13-6l3-2 18-6Z"/>
  <path fill="#fedecd" stroke="#fedecd" stroke-width=".1" d="M247 42h8l-2 6 3 5c-3 5-6 11-4 16-2 5-5 10-6 16-3 10-4 21-3 32l4 16c-7 2-15 5-20 10-3 4-6 8-10 9s-6-2-9-3c-4-2-10-2-14-5l-5-4 3-2 6 3c3-1 6-2 7-4 0-2-1-4-3-4l-12 1-5-9c-4-2-8-1-11-2-5 0-10-2-15 0-8 3-14 8-17 16l-4 13c-6 1-11 5-16 7-5 1-8 4-13 4-6 2-13 6-14 13-4 3-10 7-12 12l-4 13-12 7-6 2-19-3-10 4v-13l-1-19 12 1 12-14c6-7 13-15 21-19l14-4 5-5 5-11c3-7 8-13 12-19 6-5 13-9 21-9 7-1 12 2 18 4 5 2 10 0 15 1 6 1 12 2 18 1 4-1 6-4 9-7 5-5 11-9 18-10 6-1 11 1 16 1l12-8c-2-6-5-12-4-19 0-5 4-9 7-13l5-7Zm332 134 2 19v13l-17-1c-4-1-8 1-11 3l-4 9h-4c-3 0-6 0-8 2-9 5-17 9-25 15v1c0-6 0-12 3-17 3-4 8-6 10-10l8-12c3-5 2-12 8-14 7-4 15-3 22-1l-6 7c7-1 13-4 19-7 2-2 3-4 3-7Z"/>
  <path fill="#4e2b28" stroke="#4e2b28" stroke-width=".1" d="M263 53c6-5 12-10 20-9-4 3-9 3-13 6a76 76 0 0 0-24 73c1 3 2 6 1 10l-4-16c-1-11 0-22 3-32 1-6 4-11 6-16l11-16Z"/>
  <path fill="#60373a" stroke="#60373a" stroke-width=".1" d="m324 86 13-5 1 3 8 1c-4 5-5 11-7 16l-4 1c-1-5 1-10 3-15-4 4-5 9-5 14h-6l-2-3 2-12c-3 4-3 8-5 13-4 4-11 4-16 4l5 3h-6c3 1 5 3 6 6-1 1-1 3-3 3l-11 4c-5 3-6 9-11 13v-10c1-3 2-7 1-10l2 6c0-8-3-17-10-22l9-1c3 2 5 6 9 7 2 2 5 2 8 3-2-3-4-4-5-8 0-3 4-4 6-6 6-3 12-3 18-5Z"/>
  <path fill="#67413e" stroke="#67413e" stroke-width=".1" d="m350 81 3 1-2 4 1 1-1 10-5 4V89l4-8Z"/>
  <path fill="#461d17" stroke="#461d17" stroke-width=".1" d="m346 85 4-4-4 8c-3 4-4 10-5 15l-14-3h6c0-5 1-10 5-14-2 5-4 10-3 15l4-1c2-5 3-11 7-16Z"/>
  <path fill="#593027" stroke="#593027" stroke-width=".1" d="m370 91 3-10c2 5 3 10 2 15 0 6-3 11-7 16 5-1 10-1 13-5 4-3 4-8 5-13v-7l4 7c1 8-2 16-5 23l-4-2 1-6c-5 4-12 5-18 4l7-9c3-5 2-11 2-16-2 8-4 16-11 21-2 1-5 1-6-1l-1-9 2 1 1 8c7-3 10-10 12-17m15 19c3-5 3-10 3-15l-3 15Z"/>
  <path fill="#512720" stroke="#512720" stroke-width=".1" d="m352 87 5-4-2 4-2 12-9 5 2-13v10l5-4 1-10Z"/>
  <path fill="#4c2522" stroke="#4c2522" stroke-width=".1" d="M322 99c2-5 2-9 5-13l-2 12c-3 4-8 7-13 8l-1 6c-1-3-3-5-6-6h6l-5-3c5 0 12 0 16-4Z"/>
  <path fill="#5d3837" stroke="#5d3837" stroke-width=".1" d="m353 99 2-12 2 2c5-1 9 0 13 2-2 7-5 14-12 17l-1-8-2-1h-2Z"/>
  <path fill="#fda77b" stroke="#fda77b" stroke-width=".1" d="M373 88c0 5 1 11-2 16l-7 9c6 1 13 0 18-4l-1 6 4 2 1 3 2 3 4-2v15c-6-1-11-4-15-7l1-4c-3 2-6 4-6 8-2 6-7 12-7 19 0 6 1 12 5 16l-11 2-4 2-1 1 5 7 1-1c5-3 10-4 14-9-6-6-8-14-6-22v3l2-1 2 4c5 0 7-5 9-9l2-3 2 1c-2-2-3-4-5-4-3-1-6 1-9 3v-1l2-3 12-1 5 1-7 7c-2 7-2 14-5 21-5 16-16 30-25 44-3 4-5 8-10 10s-9 0-13-3c-7-4-13-8-19-14-2-4-6-8-11-9-7-6-14-13-16-22l-3-24c-3 1-8 5-12 2-7-8-11-18-9-28l2 4c1 4 1 9 5 12l1-1 3-1 5 2 4-4 1-3 1-1v-1a61 61 0 0 0 4 6c6-4 8-10 11-16l11-4c2 0 2-2 3-3l1-6c5-1 10-4 13-8l2 3 14 3c1-5 2-11 5-15v2l-2 13 9-5h2l1 9c1 2 4 2 6 1 7-5 9-13 11-21m-54 29c4 0 9-1 13 2l12 7-2 2 6 2-21-1c-1 1-3 3-2 5l3 3 2 9 4 1 8-1c1 1 2-1 2-2 4-1 7-3 9-6 3-2 4-5 7-6 5 0 9-4 10-9-4 1-9 2-13 1l-19-7c-6-1-13-3-19 0m0 8h8l15 2c-3-2-6-2-10-3s-9-1-13 1m8 61-1 3 18-1c5 0 9 3 13 3-2-2-6-3-9-4-7-2-14 1-21-1m10 17c4-2 8-2 12-1 2 0 3-3 3-5-3-1-6-3-9-2-4 1-8 3-6 8Z"/>
  <path fill="#fedbc8" stroke="#fedbc8" stroke-width=".1" d="M551 92c5-1 9 0 13 1v-1l5 17c2 4 3 8 3 13-7-2-12-8-18-10s-11-4-18-4l-14 3c-6 2-11 7-17 8l7-10c3-5 8-8 13-11l13-4 13-2Z"/>
  <path fill="#5f383a" stroke="#5f383a" stroke-width=".1" d="m378 99 8-5c-1 5-1 10-5 13-3 4-8 4-13 5 4-5 7-10 7-16l3 3Z"/>
  <path fill="#5f3a39" stroke="#5f3a39" stroke-width=".1" d="M390 94c1 4 6 4 9 5l1-4 2 22-2 7-4 3c-4-5 0-11 0-16v-10c-3 4-1 8-1 12l-2-3-5 10h-2l-1-3c3-7 6-15 5-23Z"/>
  <path fill="#271010" stroke="#271010" stroke-width=".1" d="M270 99c2-2 6-3 9-3 7 5 10 14 10 22l-2-6c-1-5-2-10-7-13-3-2-8-1-10 2-6 5-9 13-10 21-2 10 2 20 9 28 4 3 9-1 12-2l3 24c2 9 9 16 16 22l11 9c6 6 12 10 19 14 4 3 8 5 13 3s7-6 10-10c9-14 20-28 25-44 3-7 3-14 5-21l7-7-5-1c-4-2-7-5-10-9l-2 10-2 3c-1 2-3 4-3 7-2 8 0 16 6 22-4 5-9 6-14 9 1-5 7-5 10-8v-3c-4-4-5-10-5-16 0-7 5-13 7-19 0-4 3-6 6-8l-1 4c4 3 9 6 15 7v-15l-4 2-2-3h2c4-1 5-4 7-7 0-4-2-8 1-12v10c0 5-4 11 0 16l-3 2v7c-1 4-4 6-6 9-4 2-3 7-4 11-2 17-12 31-21 45l-15 19 18 11c3 3 7 5 12 7a62 62 0 0 1 25 24 240 240 0 0 1 17 39 484 484 0 0 1 19 57l-5 9v9l2 25v4l1 14 7 4c4 2 7 6 7 10-2-6-7-12-14-12l-1 23-1 2c-2 7-7 13-13 17-6 3-13 1-19 0h13c4 0 6-2 9-4 4-5 9-10 9-17l1-14-1-33-2-19v-6l-10 5h-13l1 4c2 6 5 12 5 19-6-2-13-4-20-4-12 0-22 6-32 12-14 8-26 20-39 28l-21 13-22 10-9 4c-6 2-12 4-19 4h-4c7-2 15-3 22-6 14-5 28-11 41-19l30-21c13-10 25-20 41-25 9-3 18-2 27 1l-1-6 4 6c0-6-2-11-4-16l-13 3c-9 2-20 5-27 12l1-3c11-8 25-11 38-13 0-7-3-13-8-17s-12-1-18-1l5-3h11c8-3 16-9 25-10-8 4-15 8-24 10l7 6 3 11c6 0 11 0 16-3 6-3 12-9 11-16-2-13-8-26-12-38l-10-26-14-29c-4-6-8-11-13-15-6-5-13-8-20-12l-22-14c2 5 6 10 7 16-4-4-6-10-9-15h-7c6 8 9 18 10 27a651 651 0 0 1-18 83c-2 8-4 16-9 23l5-16c7-19 13-40 17-60 2-11 5-23 3-34-1-6-3-12-6-17-2-4-5-8-9-9l-3-2-14 21-8 5c7-7 13-16 18-25l-9-1-5-4 14 2c-5-6-12-10-18-15-5-5-11-10-15-17-3-4-6-8-6-14l-2-19-10 4c-1 3-1 6-4 8l-8 4-10 19c-3 6-7 9-12 13-6 6-14 10-21 14-4 0-5-3-5-6l3 4 10-5c9-4 16-10 21-17h-9c-3-2-5-5-5-9v-9l6-9-1-6c0-3 2-5 3-6l-2 7 2 6c-3 3-8 8-7 13 3 5 8 7 13 9v3l3-4-2 1 6-7c-4-2-8-4-10-8l10 7c3-3 4-6 6-10-4-2-9-3-11-7l-5-12 4-8c-1 6-2 13 2 19 4 7 15 8 20 2 2-4 2-8-1-11l-6-12c-4-10-2-21 3-30l7-8m-39 80 2 6 6 2 1-3-9-5Z"/>
  <path fill="#efa97c" stroke="#efa97c" stroke-width=".1" d="M270 101c2-3 7-4 10-2 5 3 6 8 7 13 1 3 0 7-1 10l-1-2c0-6-1-13-6-17-3-2-7 1-9 2l-2 2c-5 5-7 12-6 19l-2-4c1-8 4-16 10-21Z"/>
  <path fill="#5e3439" stroke="#5e3439" stroke-width=".1" d="M245 101c6 2 11 5 18 6-5 9-7 20-3 30l6 12c3 3 3 7 1 11-5 6-16 5-20-2-4-6-3-13-2-19l2-6c1-4 0-7-1-10-2-7-2-15-1-22Zm292 120c2-2 5-2 8-2l-10 4c-7 5-15 10-23 13 8-6 16-10 25-15Zm25 57c5-11 11-21 18-30l-14 25-10 20 6-15Z"/>
  <path fill="#dabab0" stroke="#dabab0" stroke-width=".1" d="M403 101c2 4 2 7 2 11l-2-11Zm10 441c7-2 15-3 22-1l-2 6v1c-6-1-13 0-19 1l-34 3 33-10Z"/>
  <path fill="#532117" stroke="#532117" stroke-width=".1" d="M270 105c2-1 6-4 9-2 5 4 6 11 6 17l-5 2 2 7v1c-2-3-4-5-4-8l6-4c-1-4-2-9-5-12-2-3-6-1-9-1Z"/>
  <path fill="#b96f5a" stroke="#b96f5a" stroke-width=".1" d="M270 105c3 0 7-2 9 1 3 3 4 8 5 12l-6 4c0 3 2 5 4 8l-1 1-2-3-2 1 3 5-4 4c-4-8 1-17 2-25-5 7-6 15-7 23l-3 1-4-10 3-16 1-4 2-2Z"/>
  <path fill="#4d2419" stroke="#4d2419" stroke-width=".1" d="m268 107-1 4c-3 5-4 11-3 16l4 10-1 1c-4-3-4-8-5-12-1-7 1-14 6-19Z"/>
  <path fill="#f4b2c1" stroke="#f4b2c1" stroke-width=".1" d="M105 115c1-3 4-5 7-7-4 6-9 12-12 19l-5 11-5 5-14 4c-8 4-15 12-21 19l-12 14-12-1v-16c2-13 0-26 1-39l5 2 8 1c3 0 5 2 8 3l6-4 4 2 8-2-4-2c3-1 6-3 9-2h16l1 6 5-1c2-4 4-9 7-12Z"/>
  <path fill="#e1a581" stroke="#e1a581" stroke-width=".1" d="m267 111-3 16c-1-5 0-11 3-16Z"/>
  <path fill="#ca946b" stroke="#ca946b" stroke-width=".1" d="m393 110 2 3c-2 3-3 6-7 7l5-10Z"/>
  <path fill="#4f251c" stroke="#4f251c" stroke-width=".1" d="M271 136c1-8 2-16 7-23-1 8-6 17-2 25l-5-2Z"/>
  <path fill="#1c0a0d" stroke="#1c0a0d" stroke-width=".1" d="M319 117c6-3 13-1 19 0l19 7c4 1 9 0 13-1-1 5-5 9-10 9-3 1-4 4-7 6l-5-4c-2 3-4 8-9 6-3-2-1-6-1-8l-12-1 2 6-3-3c-1-2 1-4 2-5l21 1-6-2 2-2-12-7c-4-3-9-2-13-2m16 2 16 10c5 2 13 3 15-3h-7c-9-1-16-6-24-7Z"/>
  <path fill="#491f1b" stroke="#491f1b" stroke-width=".1" d="M286 132c5-4 6-10 11-13-3 6-5 12-11 16l-3-4 3-7v8Z"/>
  <path fill="#64413f" stroke="#64413f" stroke-width=".1" d="M335 119c8 1 15 6 24 7h7c-2 6-10 5-15 3l-16-10Z"/>
  <path fill="#d48865" stroke="#d48865" stroke-width=".1" d="m280 122 5-2 1 2v2l-3 7-1-2-2-7Z"/>
  <path fill="#fdc8bc" stroke="#fdc8bc" stroke-width=".1" d="M159 123c5-2 10 0 15 0 3 1 7 0 11 2l5 9 12-1c2 0 3 2 3 4-1 2-4 3-7 4l-6-3-3 2 5 4c4 3 10 3 14 5h-8l-10-5h-10l-1-2c2-5 3-9 3-14l-15-4c-4-2-7 0-10 2-4 1-8 3-10 7l-6 14 3 4-6 1 4-13c3-8 9-13 17-16Z"/>
  <path fill="#fdb5b0" stroke="#fdb5b0" stroke-width=".1" d="M157 126c3-2 6-4 10-2l15 4c0 5-1 9-3 14l1 2h10l10 5h8c3 1 5 4 9 3s7-5 10-9c5-5 13-8 20-10l-2 6-4 8-3 2c-1 1-3 3-3 6l1 6-6 9v9c-3 0-6 0-9 2-3 3-7 7-8 12v4h-1l-12-6c-3-2-3-6-4-9-4-6-10-8-15-11-4-5-9-7-13-10-7-5-16-8-24-10l-3-4 6-14c2-4 6-6 10-7Z"/>
  <path fill="#5c2b1f" stroke="#5c2b1f" stroke-width=".1" d="M319 125c4-2 9-2 13-1s7 1 10 3l-15-2h-8Z"/>
  <path fill="#fdb9b3" stroke="#fdb9b3" stroke-width=".1" d="m396 127 4-3v10l6 9-6 9c-3 3-4 8-4 12l2 15-1 9-7-1-4-8c-2-8 3-17-1-25l-2 2c1-4 0-9 4-11 2-3 5-5 6-9v-7l3-2Z"/>
  <path fill="#602115" stroke="#602115" stroke-width=".1" d="m277 129 2-1 2 3-1 3-3-5Z"/>
  <path fill="#9b6250" stroke="#9b6250" stroke-width=".1" d="M375 128c3 4 6 7 10 9l-12 1 2-10Z"/>
  <path fill="#f7fafa" stroke="#f7fafa" stroke-width=".1" d="m326 131 12 1c0 2-2 6 1 8 5 2 7-3 9-6l5 4c-2 3-5 5-9 6-4-1-9-2-13-5l-3-2-2-6Z"/>
  <path fill="#a46c57" stroke="#a46c57" stroke-width=".1" d="m328 137 3 2v4l5 1-2 3-4-1-2-9Z"/>
  <path fill="#1b0808" stroke="#1b0808" stroke-width=".1" d="M371 142c3-2 6-4 9-3 2 0 3 2 5 4a273 273 0 0 1-6-2l-4 10 6-6c-2 4-4 9-9 9l-2-4 1-1c2-1 3-3 3-5l-3 1v-3Z"/>
  <path fill="#341a16" stroke="#341a16" stroke-width=".1" d="M331 139c4 3 9 4 13 5 0 1-1 3-2 2l-6-2-5-1v-4Z"/>
  <path fill="#ffe5ce" stroke="#ffe5ce" stroke-width=".1" d="M368 148c0-3 2-5 3-7v4l3-1c0 2-1 4-3 5l-1 1-2 1v-3ZM164 500l4-9c9 7 18 13 28 17v1l-4 20v14l-39-5c3-13 6-26 11-38Z"/>
  <path fill="#fafbf5" stroke="#fafbf5" stroke-width=".1" d="m375 151 4-10 4 1-2 3-6 6Z"/>
  <path fill="#6c3526" stroke="#6c3526" stroke-width=".1" d="m336 144 6 2-8 1 2-3Z"/>
  <path fill="#5c323a" stroke="#5c323a" stroke-width=".1" d="m238 149 3-2 5 12c2 4 7 5 11 7-2 4-3 7-6 10l-10-7c2 4 6 6 10 8l-6 7h-1c-5-2-10-4-13-9-1-5 4-10 7-13l-2-6 2-7Z"/>
  <path fill="#bc705d" stroke="#bc705d" stroke-width=".1" d="m270 154 10-4 2 19c0 6 3 10 6 14 4 7 10 12 15 17 6 5 13 9 18 15l-14-2 5 4 9 1c-5 9-11 18-18 25l8-5c-3 7-9 12-14 17-2 3-5 6-9 5 1-10 7-19 6-30 0-7-4-14-6-21s-7-13-9-20c-2-8 0-16-2-25 0-3-2-7-5-9-3 5-3 10-7 14-3 0-5-2-7-3l8-4c3-2 3-5 4-8Z"/>
  <path fill="#956967" stroke="#956967" stroke-width=".1" d="m138 152 6-1c8 2 17 5 24 10 4 3 9 5 13 10l3 4c-8-2-14-9-21-13l-14-7c-4-3-10-2-14 0-4 1-5 5-6 8-4 7-4 16-6 23l6-5c-3-5-1-10 0-15 5 4 7 11 12 16 1 2 3 4 5 2l5-9c1 4 0 9 3 12l3 4-8-4-2 1 2 8c5-1 9-2 13-1v8c2-3 2-8 2-12h7l-1 16c3-3 6-6 7-11 4 1 8 1 11 4l3 5c-9 8-20 12-31 17-9 5-19 10-24 20-6 11-11 23-13 35l-5 27-1 2-7-9c-2-3-5-4-8-5l4-12 4-13 2-5c-1-2-2-4-1-6l3-12 2-17 7-15v-6l-4 3 3 1-7 16-10 28-7 15c-2 1-3 4-5 7l-5-2c-6-2-14-2-18-8 3-4 7-4 10-6 1-4-1-7-1-11l4-7c-3 1-6 1-8 4-3 5-6 10-7 16-3 0-6 1-9-1-7-5-11-13-17-19-3-3-3-7-3-11l-3 6h-2c-2-8-2-17-2-26l10-4 19 3 6-2 12-7 11-4c-1 8-5 15-7 23 7-7 7-17 10-25 4-3 8-3 12-5l3-6c-5 3-9 7-15 8 1-8 3-17 9-23 5-6 13-3 19-8l1-2c5-2 10-6 16-7m-25 33c-4 3-6 8-6 12 2-1 4-4 5-7l8-7c-2 0-5 0-7 2m-17 37-5 11c-1 4-3 8-2 12l7-17c2-6 5-11 5-17-3 3-3 7-5 11m-27 11-11 6c-2 2-5 1-8 2-1 3 5 1 7 1v8l6-10c1-3 4-3 6-4 6-2 10-6 14-10l-14 7Z"/>
  <path fill="#9b706d" stroke="#9b706d" stroke-width=".1" d="M135 155c4-2 10-3 14 0l14 7c7 4 13 11 21 13 3 2 7 3 9 7 3 4 4 10 4 15 0 2-2 3-3 4-7-6-14-11-23-13l-2-5c-3 3-7 7-12 8l-3-4c-3-3-2-8-3-12l-5 9c-2 2-4 0-5-2-5-5-7-12-12-16v-3c1-3 2-7 6-8Zm337 102c5-2 11-5 16-4l-3 7c-5 6-6 14-9 21-4 0-8 3-11 0 0-4 2-8 1-13l-2-6h4l4-5Z"/>
  <path fill="#fda67a" stroke="#fda67a" stroke-width=".1" d="M272 155c3 2 5 6 5 9 2 9 0 17 2 25 2 7 7 13 9 20s6 14 6 21c1 11-5 20-6 30 4 1 7-2 9-5 5-5 11-10 14-17l14-21 3 2c0 9 6 17 8 26-6 4-14 5-20 10-6 3-9 8-13 12l-9 7c2 0 5 0 6-2 6-4 9-10 14-14 7-6 17-7 24-13 1 6 1 13-1 19-2 4-7 6-11 7-4 17-9 33-15 49-6 3-13 2-19 1-4-5-6-11-9-17-5-12-9-24-11-37-6-1-13-1-19-4-8-3-16-7-21-14l-16-25c-1-3-3-6-6-8l5-4c7-4 15-8 21-14 5-4 9-7 12-13l10-19c2 1 4 3 7 3 4-4 4-9 7-14m-6 77 3 18-3 6c-9-6-21-7-32-9 6 4 14 5 21 7 9 2 17 8 24 14 2 3 5 5 9 6-1-3-4-5-6-7l-11-7 2-3-2-2-1-4 1-3c1-7-1-15-3-22v-2c-2 2-2 5-2 8Z"/>
  <path fill="#884e57" stroke="#884e57" stroke-width=".1" d="M109 163c5 0 8-3 13-4l-1 2c-6 5-14 2-19 8-6 6-8 15-9 23 6-1 10-5 15-8l-3 6c-4 2-8 2-12 5-3 8-3 18-10 25 2-8 6-15 7-23l5-21c1-7 8-11 14-13Z"/>
  <path fill="#824f52" stroke="#824f52" stroke-width=".1" d="M123 186c2-7 2-16 6-23v3c-1 5-3 10 0 15l-6 5Z"/>
  <path fill="#feb3ad" stroke="#feb3ad" stroke-width=".1" d="m578 166 1 10c0 3-1 5-3 7-6 3-12 6-19 7l6-7c-7-2-15-3-22 1-6 2-5 9-8 14l-8 12c-2 4-7 6-10 10-3 5-3 11-3 17l-1 2-4 2-6 1-4 3c-4 2-6 5-9 8-5-1-11 2-16 4l-4 5h-4l-23-2c-7-1-14-3-22-3l-19 3c-5-9-14-16-23-22-1-8 1-16 5-23 3-4 8-7 12-10 6-4 13-4 19-7l-2-14c1-6 5-12 11-16l-9 15c-1 8 4 14 4 22l-8 5-2-1 1-4h-3l-7 6c4 2 10 2 10 7h10c5-4 9-8 15-9 0 3-2 5-5 6 5 4 10 7 16 9l1 2-6 3c2 1 4 3 6 2l9-3 4 9 11 1c4-1 5-5 9-5 6-1 13 2 18-3l21-19c3-4 3-9 4-14 1-4 4-7 7-10 5-3 9-7 15-8h12c4 0 8 2 13 1l9-3 1-11Z"/>
  <path fill="#b06e55" stroke="#b06e55" stroke-width=".1" d="M370 168v3c-3 3-9 3-10 8l-1 1-5-7 1-1 12-2h-8l11-2Z"/>
  <path fill="#582013" stroke="#582013" stroke-width=".1" d="m355 172 4-2h8l-12 2Z"/>
  <path fill="#88545b" stroke="#88545b" stroke-width=".1" d="m184 175-3-4c5 3 11 5 15 11 1 3 1 7 4 9l12 6c-8 0-16 3-21 8l-3-5c-3-3-7-3-11-4-1 5-4 8-7 11l1-16h-7c0 4 0 9-2 12v-8c-4-1-8 0-13 1a1075 1075 0 0 1 0-9l8 4c5-1 9-5 12-8l2 5c9 2 16 7 23 13 1-1 3-2 3-4 0-5-1-11-4-15-2-4-6-5-9-7Z"/>
  <path fill="#fdbdb4" stroke="#fdbdb4" stroke-width=".1" d="M83 188c2-5 8-9 12-12l-5 21-11 4 4-13Z"/>
  <path fill="#5a3137" stroke="#5a3137" stroke-width=".1" d="M221 181c3-2 6-2 9-2 0 4 2 7 5 9h9c-5 7-12 13-21 17l-7-1 5-1a202 202 0 0 0-7-2l-1-8c1-5 5-9 8-12Z"/>
  <path fill="#603a39" stroke="#603a39" stroke-width=".1" d="m231 179 9 5-1 3-6-2-2-6Z"/>
  <path fill="#75424b" stroke="#75424b" stroke-width=".1" d="M113 185c2-2 5-2 7-2l-8 7c-1 3-3 6-5 7 0-4 2-9 6-12Z"/>
  <g fill="#4b232e" stroke="#4b232e" stroke-width=".1">
    <path d="M327 186c7 2 14-1 21 1 3 1 7 2 9 4-4 0-8-3-13-3l-18 1 1-3Zm-119 16 8-1 5 2-5 1c-3 0-6-1-8 1v10l-3-9c-7 1-10 7-14 11 0-4 3-7 6-10s7-3 11-5Zm-12 34 4 5c7 13 13 27 18 42 2 10 5 20 5 30v21c-2-7-2-15-2-22-1-17-6-33-13-48-3-10-9-18-12-28Zm380 11c1-4 4-8 7-10-1 4-4 7-7 10Zm-349 11 4 9a694 694 0 0 0 22 68c-7-12-11-26-16-39-3-13-9-25-10-38Zm103 28 2-2a230 230 0 0 1-9 38l4-21 3-15Zm75 55c3-2 6-5 10-6l-5 6c-6 4-13 9-20 11l15-11Zm-273 13c3 4 2 9 3 13-4-3-3-9-3-13Zm175 96c6-1 12 1 18 2l40 8 36 3c-14 1-27 0-41-2l-11-2-42-9Zm-33 11-2 7c-4 6-7 12-13 16h-1l10-15 6-8Z"/>
    <path d="M361 463c1 2 3 3 2 6-3 4-9 5-13 8l-1 4v2l-14 12-12 11c-8 4-16 7-25 9-8 3-17 4-26 4-16 0-32 0-47-4l-29-7c-10-4-19-10-28-17l-1-1-1-2v-8l1-3a107 107 0 0 0 36 10c12 3 24 7 36 8 16 2 33 6 50 3l26-7c12-5 25-10 36-17 3-2 7-3 10-6v-5Zm118 14c2 0 4 0 6 2 5 4 8 9 11 14l5 8c2 5 4 9 3 14-5-14-12-29-25-38Zm-33 50c1-2 4-3 7-3l1 6-9 15h-3c4-6 9-12 10-19-6 2-11 9-14 15l-4 6h-1l2-6 11-14Z"/>
  </g>
  <path fill="#311b19" stroke="#311b19" stroke-width=".1" d="m213 193 1 8c-4-3-9-2-14 0l-12 9c-14 10-32 15-45 27a93 93 0 0 0-20 49c-4 23-8 46-10 70l5-6 11-4c9-1 18 1 26-3s16-10 25-12c11-4 25-3 34 5 2 3 4 5 4 8-6-9-17-13-27-13-13 0-24 7-35 13l-14 4 6 12 11 26 11 25c7 17 16 32 25 48 2 4 4 9 8 11 3 2 7 2 11 1 8-3 16-8 25-9l-2 2c-11 2-20 10-31 10-3-2-7-4-9-7l-10-17c-11-20-21-41-30-62l-10-24-7-16c-7-1-15-1-21 3-4 3-6 9-3 14 5 5 12 9 19 10 5 1 10-1 14-2l-5 4v6a355 355 0 0 1 12 55l-2-4c-1 8-4 15-4 23 0 6 5 11 10 14l7 6-1 3c-5-6-15-10-17-18-2-9 0-17 3-26l2-5-1-8-1-2-3-15-7-28c-7-1-15-2-21-6l-7-6-3-12 2-14 3-27 2-9 5-27c2-12 7-24 13-35 5-10 15-15 24-20 11-5 22-9 31-17 5-5 13-8 21-8h1v-4Z"/>
  <path fill="#c27c63" stroke="#c27c63" stroke-width=".1" d="M300 194c5 1 9 5 11 9l-11-9Z"/>
  <path fill="#bd6d58" stroke="#bd6d58" stroke-width=".1" d="M337 203c-2-5 2-7 6-8 3-1 6 1 9 2 0 2-1 5-3 5-4-1-8-1-12 1Z"/>
  <path fill="#fafeff" stroke="#fafeff" stroke-width=".1" d="M200 201c5-2 10-3 14 0h2l-8 1c-4 2-8 2-11 5s-6 6-6 10c4-4 7-10 14-11l3 9 1 2c1 5 4 8 7 11 6 10 11 20 20 28 10 7 22 12 34 13 2 7 3 14 6 20 4 13 8 27 17 38-3 1-8 2-9 6-2 6 1 13 4 18l-14-1-9-20-20-40c-4-8-8-16-14-23l-4-9c1 13 7 25 10 38-2 10 3 19 5 28l10 29h-10c-4-8-6-18-8-27-3-9-7-17-9-26-2-6-3-12-7-17-5-15-11-29-18-42l-4-5c3 10 9 18 12 28-1 2-2 5-1 8l5 21c-5-7-9-15-15-21-3-5-4-11-8-15l2 6 19 46 9 26-5 1c-9-8-23-9-34-5-9 2-17 8-25 12v-23c0-18-2-37-6-55-1-2-1-5-3-7l-5-2c-4 6-4 14-5 21-1 14 1 29-1 43 0 6-2 12-3 17 0 3-1 7-3 9l-11 4-5 6c2-24 6-47 10-70 3-18 8-36 20-49 13-12 31-17 45-27l12-9Z"/>
  <path fill="#fcb2b1" stroke="#fcb2b1" stroke-width=".1" d="m347 220 15-19 13 5-3 7c-1 7-7 11-7 18l-18-11Z"/>
  <path fill="#cbb5af" stroke="#cbb5af" stroke-width=".1" d="M208 205c2-2 5-1 8-1l7 1-10 5-3-4c0 3 1 6 5 6l-5 4v1h-1l-1-2v-10Z"/>
  <path fill="#87565d" stroke="#87565d" stroke-width=".1" d="m119 209 4-3v6l-7 15-2 17-3 12c-1 2 0 4 1 6l-2 5-4 13-4 12c-3-3-1-6 0-9 2-5 4-11 4-17-4 7-5 15-8 22l-1-9c-1-4 0-7 1-10l7-15 10-28 7-16-3-1Z"/>
  <path fill="#784354" stroke="#784354" stroke-width=".1" d="M553 210c3-2 7-4 11-3l17 1h1l-4 2c-7 0-14-2-21 0l-4 8c-3 6-7 12-9 19l-4 12h13l5-5-4 9c-3-1-7-2-11-1-3 1-5 4-7 7-3 3-5 8-7 12l-13 24c-5 14-12 27-18 41l-6 13c-4 3-7 8-10 12 1-5 3-10 6-14 2-4 6-7 8-12 5-10 10-20 13-30l7-14 8-18c-9 1-16 8-20 16-1-5 3-9 7-12l18-13 4-7c3-6 6-12 7-19l9-19 4-9Z"/>
  <path fill="#ab8679" stroke="#ab8679" stroke-width=".1" d="M582 208v14c-3 2-7 2-11 1-2 2-4 4-7 4-4 1-9 1-12 5l-8 9v-4c2-7 6-13 9-19l4-8c7-2 14 0 21 0l4-2Z"/>
  <path fill="#7c4853" stroke="#7c4853" stroke-width=".1" d="M96 222c2-4 2-8 5-11 0 6-3 11-5 17l-7 17c-1-4 1-8 2-12l5-11Z"/>
  <path fill="#d9d5d4" stroke="#d9d5d4" stroke-width=".1" d="M209 217h1c3 3 5 7 6 11-3-3-6-6-7-11Z"/>
  <path fill="#250f09" stroke="#250f09" stroke-width=".1" d="M210 217v-1c3 2 5 5 6 8l16 25c5 7 13 11 21 14 6 3 13 3 19 4 2 13 6 25 11 37 3 6 5 12 9 17l8 12-7-6c-9-11-13-25-17-38-3-6-4-13-6-20-12-1-24-6-34-13-9-8-14-18-20-28-1-4-3-8-6-11Z"/>
  <path fill="#d08162" stroke="#d08162" stroke-width=".1" d="M328 219c4 1 7 5 9 9l1 7c-1 3 1 7-2 10-2-9-8-17-8-26Z"/>
  <path fill="#ac8577" stroke="#ac8577" stroke-width=".1" d="M545 219h4l-9 19c-2 3-3 7-6 9l-10 8-7 7c-2 1-3 0-5-1l-1-1-3 8c-4 1-7 4-9 6l-2-2-9 21c-4 8-7 16-14 21-2-5 2-9 4-13l5-18c3-10 7-20 9-31l5-7 4-3 3 2-4 12c4-5 6-10 7-15l4-2 1-2v-1c8-3 16-8 23-13l10-4m-23 21c-2 5-6 9-9 14-1 2 1 3 3 4l5-6v-5l6-15c-3 1-4 5-5 8m2 9c5-2 5-9 6-13-3 4-5 8-6 13Z"/>
  <path fill="#fafefe" stroke="#fafefe" stroke-width=".1" d="M335 222h7c3 5 5 11 9 15-1-6-5-11-7-16l22 14c7 4 14 7 20 12 5 4 9 9 13 15l14 29 10 26c4 12 10 25 12 38 1 7-5 13-11 16-5-4-12-6-19-8l-7-6c9-2 16-6 24-10-1-1-1-4-3-4l-9-2 5-6c1-1 3-3 2-5-1-3-4-3-7-4l-9 3-1-4c-2-1-4-2-6-1l-11 6c-1-7 1-13 1-19v-28c0-2-2-4-4-6l-1-1-1 21c-1 9-2 18-5 27l-8 20c-3-4-2-9-1-13 2-18 2-36 0-53 0-8-2-15-5-22h-3l-1 7-4-7 1 4c3 12 5 24 4 36l-4 25c-3 15-8 29-13 42l-14-2c6-18 12-38 12-57l3-17c3-12 6-25 5-38-1-9-4-19-10-27ZM144 383v-6l8 22c3 8 5 17 9 25l19 28 13 24c3 4 8 6 10 11l-3-1-10-6c-10-3-19-9-30-9-5-3-10-8-10-14 0-8 3-15 4-23l2 4-2-15c-2-14-6-27-10-40Z"/>
  <path fill="#98686a" stroke="#98686a" stroke-width=".1" d="M571 223c4 1 8 1 11-1l2 14-1 1c-3 2-6 6-7 10l-3 4-1-4-4-1 1-3 8-2c-4-1-8 1-12 2l-7 1-5 5h-13l4-12v4l8-9c3-4 8-4 12-5 3 0 5-2 7-4Z"/>
  <path fill="#582317" stroke="#582317" stroke-width=".1" d="M266 232c0-3 0-6 2-8v2c0 7 1 15 3 22l-1 3-1-1-3-18Z"/>
  <path fill="#7c4651" stroke="#7c4651" stroke-width=".1" d="m69 233 14-7c-4 4-8 8-14 10-2 1-5 1-6 4l-6 10v-8c-2 0-8 2-7-1 3-1 6 0 8-2l11-6Z"/>
  <path fill="#b77761" stroke="#b77761" stroke-width=".1" d="M268 226c2 7 4 15 3 22-2-7-3-15-3-22Z"/>
  <path fill="#d2bdb6" stroke="#d2bdb6" stroke-width=".1" d="m338 235-1-7c3 5 5 11 6 17 2 11-1 23-3 34-4 20-10 41-17 60l-5 16c5-7 7-15 10-23l9-28c0 19-6 39-12 57l-20-5 2-1c3-2 7-5 8-9l8-24 4-9 5-29-2 2c0-5 1-10 3-14h-3c3-1 7-4 8-7 4-10 3-21 0-30Z"/>
  <path fill="#99716b" stroke="#99716b" stroke-width=".1" d="m36 237 3-6c0 4 0 8 3 11 6 6 10 14 17 19 3 2 6 1 9 1 1-6 4-11 7-16 2-3 5-3 8-4l-4 7c0 4 2 7 1 11-3 2-7 2-10 6 4 6 12 6 18 8l5 2c2-3 3-6 5-7-1 3-2 6-1 10l1 9 1 4c3 3 8 4 11 8s6 8 6 13l-3 27-8-14c-1-4-5-6-8-7s-8-1-9-4c-3-4-4-8-8-11l-15-6c-5-1-9-4-13-6-6-2-10-7-15-10l-2-29-1-16h2m12 42c2 3 6 5 10 5-2-3-6-5-10-5m12 4 8 5c3 1 7-1 11-2l-6-2c-4-1-9-2-13-1Zm374 264 4-6 2 5-6 1Z"/>
  <path fill="#9b6b6c" stroke="#9b6b6c" stroke-width=".1" d="M522 240c1-3 2-7 5-8l-6 15v5l-5 6c-2-1-4-2-3-4 3-5 7-9 9-14Z"/>
  <path fill="#230904" stroke="#230904" stroke-width=".1" d="M336 245c3-3 1-7 2-10 3 9 4 20 0 30-1 3-5 6-8 7h-3c-1 10-4 19-7 28l-11 32-8 23 4 1 20 5a109 109 0 0 0 32 3c4-6 6-13 8-20l8-20c3-9 4-18 5-27l1-21 1 1a200 200 0 0 1-6 51l-5 12 14-10 11-6c2-1 4 0 6 1-3 0-7-1-10 2l-23 19-7 18 15-2c-6 3-13 4-19 4-12 1-24-1-35-4l-26-6c-5-2-11-4-17-4-8 0-15 2-23 3-7 1-14-1-20 2-10 4-19 9-27 15-5 4-10 7-14 12l7 5c10-6 19-13 30-18 4-3 9-4 14-4l-15 6c-8 4-16 10-23 15l6 4 23-13 9-2c-9 5-20 9-29 15l4 3c4 1 8 0 11-2 8-3 15-6 23-7l-18 7-18 6c0-1 0-4-2-4l-9-5c-3-1-5 1-8 1l-7-8 8-7-4-5c0-3 1-5 3-7 5-6 10-13 18-13l-3 2c-6 3-10 8-14 13-1 1-3 3-3 5l4 4 21-15 12-5c-5-4-11-3-16-2l1-2 4-2-4-14-9-26-19-46-2-6c4 4 5 10 8 15l13 31 12 33 3 14h4l7 4 6-1h10l22-3 14 1 11 4 7-21 5-14c6-16 11-32 15-49 4-1 9-3 11-7 2-6 2-13 1-19-7 6-17 7-24 13-5 4-8 10-14 14-1 2-4 2-6 2l9-7c4-4 7-9 13-12 6-5 14-6 20-10Z"/>
  <path fill="#916362" stroke="#916362" stroke-width=".1" d="M524 249c1-5 3-9 6-13-1 4-1 11-6 13Z"/>
  <path fill="#a47871" stroke="#a47871" stroke-width=".1" d="M584 236v12c-5 4-7 10-10 16-2 2-2 4-1 6l11-11 1 34c-4 0-7 1-10 3l-3 12c-3 2-6 4-7 7-2 4-5 6-7 8l3 9v5l5 7c-6 3-12 5-17 9-3 1-3 4-2 7v3l-11 11c-4 3-2 10-5 13l-10 11c-5 6-7 12-9 19l4-3-5 18c-6-1-13-2-18-6l3-2 3-6-2-5c2-8 7-15 10-22 3-5 4-11 6-17l5-13c-5 6-9 13-12 20l-4 7c2-11 10-20 13-32l4-7-2 7h3l2 4c4-15 15-28 17-43-3 1-5 3-6 6l-10 19-1-3-5 3c1-4 5-7 7-11l8-14c1-5 4-9 6-13l7-19 3-1-2 8c5-7 9-15 10-23 4-8 7-16 12-23l4 1 1 4 3-4c3-3 6-6 7-10l1-1m-22 42-6 15 10-20 14-25c-7 9-13 19-18 30Z"/>
  <path fill="#9d6e6c" stroke="#9d6e6c" stroke-width=".1" d="M534 247c3-2 4-6 6-9-1 7-4 13-7 19-5 1-11 4-14 9-3 3-6 5-10 6l3-11c2 1 3 2 5 1l7-7 10-8Z"/>
  <path fill="#6b3c42" stroke="#6b3c42" stroke-width=".1" d="M565 243c4-1 8-3 12-2l-8 2a368 368 0 0 1-13 26c2-9 7-17 9-26Z"/>
  <path fill="#976664" stroke="#976664" stroke-width=".1" d="m501 242 6-1c-1 5-3 10-7 15l4-12-3-2Z"/>
  <path fill="#9f6f6c" stroke="#9f6f6c" stroke-width=".1" d="m558 244 7-1c-2 9-7 17-9 26-1 8-5 16-10 23l2-8-3 1-7 19c-2 4-5 8-6 13l-8 14c-2 4-6 7-7 11l5-3 1 3-4 7-4 7c-3 12-11 21-13 32l4-7c3-7 7-14 12-20l-5 13c-2 6-3 12-6 17-3 7-8 14-10 22l2 5-3 6-3 2-12-5-12-3-12 3 3-7 1 3 9-5c3-1 4-5 5-8 5-11 11-22 13-34l-5 2c2-8 7-15 9-23l6-13 2 5 10-16-2 10h3l2 4c6-7 12-14 15-22 5-10 12-19 13-30 0-6 4-10 6-14l-6 5-2-1c3-8 11-14 13-22h-7l4 2-3 4-4-5-6 3c2-3 4-6 7-7 4-1 8 0 11 1l4-9Z"/>
  <path fill="#733d4f" stroke="#733d4f" stroke-width=".1" d="M488 253c3-3 5-6 9-8l-5 7-12 33-8 16c-4 9-5 18-9 26l-4 7h-3c5-5 6-13 8-20 3-7 5-13 9-19 2-4 2-7 2-11l4-4 6-20 3-7Z"/>
  <path fill="#4e2418" stroke="#4e2418" stroke-width=".1" d="M234 247c11 2 23 3 32 9l4 2-2-4a70 70 0 0 1 5 3l-2 3 11 7c2 2 5 4 6 7-4-1-7-3-9-6-7-6-15-12-24-14-7-2-15-3-21-7Z"/>
  <path fill="#b18a7d" stroke="#b18a7d" stroke-width=".1" d="M574 264c3-6 5-12 10-16v11l-11 11c-1-2-1-4 1-6Z"/>
  <path fill="#bd775e" stroke="#bd775e" stroke-width=".1" d="m269 250 1 1 1 4-3-1 2 4-4-2 3-6Z"/>
  <path fill="#9a6c6c" stroke="#9a6c6c" stroke-width=".1" d="m480 285 12-33c-2 11-6 21-9 31l-5 18c-2 4-6 8-4 13 7-5 10-13 14-21l9-21 2 2c2-2 5-5 9-6-3 7-4 14-8 21-3 5-10 8-14 11l-1 4-8 11-9 12 8-2-2 6-3-3-8 6 3-6-3-1c4-8 5-17 9-26l8-16Z"/>
  <path fill="#7b4652" stroke="#7b4652" stroke-width=".1" d="M545 255h7c-2 8-10 14-13 22l-2 1c2-6 4-12 9-17l3-4-4-2Z"/>
  <path fill="#d9bfb8" stroke="#d9bfb8" stroke-width=".1" d="m141 256 5 2c2 2 2 5 3 7 4 18 6 37 6 55v23c-8 4-17 2-26 3 2-2 3-6 3-9 1-5 3-11 3-17 2-14 0-29 1-43 1-7 1-15 5-21Z"/>
  <path fill="#21140e" stroke="#21140e" stroke-width=".1" d="m351 256 4 7c3 14 5 28 3 42l-2-9c1-12-1-24-4-36l-1-4Z"/>
  <path fill="#d8beb7" stroke="#d8beb7" stroke-width=".1" d="M356 256h3c3 7 5 14 5 22 2 17 2 35 0 53-1 4-2 9 1 13-2 7-4 14-8 20l-18-1c5-13 10-27 13-42l4-25 2 9c2-14 0-28-3-42l1-7Z"/>
  <path fill="#a77e75" stroke="#a77e75" stroke-width=".1" d="m536 259 6-3 4 5c-5 5-7 11-9 17l-10 19-2-3-15 31-10 16-2-5c6-14 13-27 18-41l13-24c2-4 4-9 7-12Z"/>
  <path fill="#926466" stroke="#926466" stroke-width=".1" d="m400 260 19-3c8 0 15 2 22 3l23 2 2 6c1 5-1 9-1 13 3 3 7 0 11 0 3-7 4-15 9-21l-6 20-4 4c0 4 0 7-2 11-4 6-6 12-9 19l-5 12-5 5-6 2c-1-5 1-10 3-15l5-20 9-30-8 17c-2 4-6 6-10 6 4-5 5-12 7-19 2-4 6-6 9-8l-36-4c-8-2-17 0-25 2l-2-2Z"/>
  <path fill="#925f67" stroke="#925f67" stroke-width=".1" d="M519 266c3-5 9-8 14-9l-4 7-18 13c-4 3-8 7-7 12-3 6-8 10-14 14l-5 1 1-4c4-3 11-6 14-11 4-7 5-14 8-21l3-8 1 1-3 11c4-1 7-3 10-6Z"/>
  <path fill="#9f7773" stroke="#9f7773" stroke-width=".1" d="M402 262c8-2 17-4 25-2l36 4c-3 2-7 4-9 8-2 7-3 14-7 19l-15 4c-5 2-9 2-14 2-4-12-10-24-16-35Z"/>
  <path fill="#d6c0ba" stroke="#d6c0ba" stroke-width=".1" d="M208 264c7 15 12 31 13 48 0 7 0 15 2 22v-21c0-10-3-20-5-30 4 5 5 11 7 17 2 9 6 17 9 26 2 9 4 19 8 27l-6 1-7-4v-12c-1-6-1-12-4-17l-1 11-2 4-12-33-13-31c6 6 10 14 15 21l-5-21c-1-3 0-6 1-8Z"/>
  <path fill="#7a434f" stroke="#7a434f" stroke-width=".1" d="M98 288c3-7 4-15 8-22 0 6-2 12-4 17-1 3-3 6 0 9 3 1 6 2 8 5l7 9 1-2-2 9c0-5-3-9-6-13s-8-5-11-8l-1-4Z"/>
  <path fill="#d7beb7" stroke="#d7beb7" stroke-width=".1" d="M231 267c6 7 10 15 14 23l20 40 9 20-22 3-10-29c-2-9-7-18-5-28 5 13 9 27 16 39l-2-9c-8-20-15-39-20-59Z"/>
  <path fill="#672e45" stroke="#672e45" stroke-width=".1" d="m457 285 8-17-9 30-8 21 1-7c2-7 6-14 6-21l-5 1-18 4c-4 2-9 2-13 5l-1-4c5 0 9 0 14-2l15-4c4 0 8-2 10-6Z"/>
  <path fill="#fcfcfb" stroke="#fcfcfb" stroke-width=".1" d="M327 272h6c-2 4-3 9-3 14l-3 15-6 16c-5 13-11 25-14 38l-2 1-4-1 8-23 11-32c3-9 6-18 7-28Z"/>
  <path fill="#a27770" stroke="#a27770" stroke-width=".1" d="M504 289c4-8 11-15 20-16l-8 18-7 14c-6 5-6 13-11 18l-14 13c-5 5-12 7-18 11l-2-4-10 8h-8c-2 0-3 2-3 4-1 2-3 2-5 3l-2-11 10-8c3-3 6-5 10-5h3l4-7 3 1-3 6 8-6 3 3 2-6c2-5 5-8 8-12l6-10c6-4 11-8 14-14Z"/>
  <path fill="#956367" stroke="#956367" stroke-width=".1" d="m541 278 6-5c-2 4-6 8-6 14-1 11-8 20-13 30-3 8-9 15-15 22l-2-4h-3l2-10 15-31 2 3 10-19 2-1 2 1Z"/>
  <path fill="#d4bfb6" stroke="#d4bfb6" stroke-width=".1" d="M380 277c2 2 4 4 4 6v28c0 6-2 12-1 19l-14 10 5-12c3-7 4-14 5-21 1-10 2-20 1-30Z"/>
  <path fill="#815153" stroke="#815153" stroke-width=".1" d="M48 279c4 0 8 2 10 5-4 0-8-2-10-5Z"/>
  <path fill="#919175" stroke="#919175" stroke-width=".1" d="M37 282c5 3 9 8 15 10 4 2 8 5 13 6l15 6c4 3 5 7 8 11 1 3 6 3 9 4s7 3 8 7l8 14-2 14 3 12c-4-2-8-4-10-8l-5-13c0-5 4-8 7-11-2-3-3-7-6-10-4-3-10-3-14-7-3-3-3-8-6-11-2-2-4-2-7-2l-17-5c-7-3-14-8-19-15v-2Z"/>
  <path fill="#8c5e5f" stroke="#8c5e5f" stroke-width=".1" d="M60 283c4-1 9 0 13 1l6 2c-4 1-8 3-11 2l-8-5Z"/>
  <path fill="#88a278" stroke="#88a278" stroke-width=".1" d="M37 284c5 7 12 12 19 15l17 5c3 0 5 0 7 2 3 3 3 8 6 11 4 4 10 4 14 7 3 3 4 7 6 10-3 3-7 6-7 11l5 13c2 4 6 6 10 8l4 12c-4 3-5 7-5 12l-4-2 1 4-6 4 1-10-5-8-3-6c-3-2-3-6-4-10-2-5-7-9-9-14-2-4-1-9-4-13-4-5-11-3-14-8l-7-9c-1-1 0-3 1-5-4-3-8-7-14-7-3 0-6-1-7-4l-2-18Z"/>
  <path fill="#946468" stroke="#946468" stroke-width=".1" d="m450 292 5-1c0 7-4 14-6 21-4 9-7 19-8 29l-6 4-8-25 7 4 7-13c2-3 6-5 7-9l2-10Z"/>
  <path fill="#9f7370" stroke="#9f7370" stroke-width=".1" d="m432 296 18-4-2 10c-1 4-5 6-7 9l-7 13-7-4-8-19c4-3 9-3 13-5Z"/>
  <path fill="#7f8465" stroke="#7f8465" stroke-width=".1" d="M575 296c3-2 6-3 10-3v16c-5-1-10-1-14 3l5-1-12 10 3 4-6 7-3-9c2-2 5-4 7-8 1-3 4-5 7-7l3-12Z"/>
  <path fill="#86535e" stroke="#86535e" stroke-width=".1" d="m448 319 8-21-5 20c-2 5-4 10-3 15l6-2 5-5 5-12c-2 7-3 15-8 20-4 0-7 2-10 5v-2l-5 4c1-10 4-20 8-29l-1 7Z"/>
  <path fill="#dfccc5" stroke="#dfccc5" stroke-width=".1" d="m321 317 6-16-4 21-8 24c-1 4-5 7-8 9 3-13 9-25 14-38Z"/>
  <path fill="#779374" stroke="#779374" stroke-width=".1" d="M39 302c1 3 4 4 7 4 6 0 10 4 14 7-1 2-2 4-1 5l7 9c3 5 10 3 14 8 3 4 2 9 4 13 2 5 7 9 9 14 1 4 1 8 4 10l3 6 5 8-1 10 6-4-1-4 4 2c0-5 1-9 5-12l-4-12 7 6c-1 8-3 17-8 24l-5 12c-2 4-6 7-7 12l-3 13c1 5 7 8 6 13-2 5-6 9-10 13-3 5-7 10-12 13l-4-3 1-2c-3-1-5-3-5-6-3 0-5-1-7 1l-7 8c-2-2-3-7-7-6l-11 2 1-16 20-1-4-3 5-2c-4-4-9-7-10-12-1-4 2-6 3-9v9l5 3c3 1 5 5 8 7l9 6 10 9 8-7c1-6-2-13-1-20 0-3 1-6-1-9-4 1-9 3-12 0-5-3-9-8-15-8-5-1-9 4-12 7l-1-2 8-10c8-1 17 2 21 9l3 2c6-6 8-15 6-24-7-1-8-9-13-13l-13-5c-5 0-6 8-11 8-3 1-6-3-5-6l5-1c1-5 3-10 1-15l-4-13-11-10-1-1-2-37Z"/>
  <path fill="#7c4955" stroke="#7c4955" stroke-width=".1" d="m485 304 5-1-6 10c-3 4-6 7-8 12l-8 2 9-12 8-11Z"/>
  <path fill="#996867" stroke="#996867" stroke-width=".1" d="M498 323c5-5 5-13 11-18-3 10-8 20-13 30-2 5-6 8-8 12-3 4-5 9-6 14 3-4 6-9 10-12-2 8-7 15-9 23l5-2c-2 12-8 23-13 34-1 3-2 7-5 8l-9 5-1-3-3 7-4 13-2 1-1-2c0-4-3-8-7-10l-7-4-1-14 9 7c2 1 4-2 5-3l13-23c4-6 8-12 9-20-1-4-4-8-6-11l-3 6c-2 2-6 2-7 5-6 9-10 20-15 30-1 3-3 4-5 5l-2-25v-9l5-9c2-1 4-1 5-3 0-2 1-4 3-4h8l10-8 2 4c6-4 13-6 18-11l14-13Z"/>
  <path fill="#68715a" stroke="#68715a" stroke-width=".1" d="M571 312c4-4 9-4 14-3l-1 8-17 8-3-4 12-10-5 1Z"/>
  <path fill="#b78b7e" stroke="#b78b7e" stroke-width=".1" d="M533 323c1-3 3-5 6-6-2 15-13 28-17 43l-2-4h-3l2-7 4-7 10-19Z"/>
  <path fill="#515659" stroke="#515659" stroke-width=".1" d="m567 325 17-8-1 29c-5 1-12 2-14 8l-13 5c-3 2-6 1-9 1-1-3-1-6 2-7 5-4 11-6 17-9l-5-7v-5l6-7Z"/>
  <path fill="#bf745c" stroke="#bf745c" stroke-width=".1" d="M292 321c6 1 13 2 19-1l-5 14-6-1-8-12Z"/>
  <path fill="#fdfcfb" stroke="#fdfcfb" stroke-width=".1" d="M225 321c3 5 3 11 4 17v12h-4l-3-14 2-4 1-11Z"/>
  <path fill="#fca67a" stroke="#fca67a" stroke-width=".1" d="M390 327c3-3 7-2 10-2l1 4c-8 5-15 12-22 19l-5 8 1 1 6 3c6 0 13-3 18 1s8 10 8 17c-13 2-27 5-38 13-3 1-7 1-10 3l-9 6c-2-3-5-6-9-8-8-4-18-4-25-10-6-5-13-9-21-11-4-1-8 1-11 3-8 3-16 3-23 6-8 2-17 2-24 6-6 3-13 5-17 9l-4-3c9-6 20-10 29-15l-9 2-23 13-6-4c7-5 15-11 23-15l15-6c-5 0-10 1-14 4-11 5-20 12-30 18l-7-5c4-5 9-8 14-12 8-6 17-11 27-15 6-3 13-1 20-2 8-1 15-3 23-3 6 0 12 2 17 4l26 6c11 3 23 5 35 4 6 0 13-1 19-4l-15 2 7-18 23-19Z"/>
  <path fill="#452b25" stroke="#452b25" stroke-width=".1" d="m401 329 9-3c-5 4-12 7-16 12l-19 19-1-1 5-8c7-7 14-14 22-19Z"/>
  <path fill="#d7bfb8" stroke="#d7bfb8" stroke-width=".1" d="M410 326c3 1 6 1 7 4 1 2-1 4-2 5-4 1-7 4-10 6l-15 11c7-2 14-7 20-11l9 2c2 0 2 3 3 4-9 1-17 7-25 10h-11l-5 3-6-3 19-19c4-5 11-8 16-12Z"/>
  <path fill="#d8bfb8" stroke="#d8bfb8" stroke-width=".1" d="m293 327 7 6 6 1-7 21-11-4c-3-5-6-12-4-18 1-4 6-5 9-6Zm-174 24c6-4 14-4 21-3l7 16 10 24c9 21 19 42 30 62l10 17c2 3 6 5 9 7a69 69 0 0 0 47 18h18c5-1 10-1 14-5 6-8 10-17 13-26l5-13 4 2 42 9h-4l6 15c-11 7-24 12-36 17l-26 7c-17 3-34-1-50-3-12-1-24-5-36-8-2-5-7-7-10-11l-13-24-19-28c-4-8-6-17-9-25l-8-22 5-4c-4 1-9 3-14 2-7-1-14-5-19-10-3-5-1-11 3-14m13 3c0 4-1 10 3 13-1-4 0-9-3-13Z"/>
  <path fill="#bd715e" stroke="#bd715e" stroke-width=".1" d="M156 344c11-6 22-13 35-13 10 0 21 4 27 13l1 7-1 2h-4l3-2c-8 0-13 7-18 13-11-4-23 0-31 7-4 4-7 10-9 15l-11-26-6-12 14-4Z"/>
  <path fill="#d9cdc7" stroke="#d9cdc7" stroke-width=".1" d="m214 336 5-1 4 14-4 2-1-7c0-3-2-5-4-8Z"/>
  <path fill="#6a3a40" stroke="#6a3a40" stroke-width=".1" d="m441 341 5-4v2l-10 8-1-2 6-4Z"/>
  <path fill="#6c8478" stroke="#6c8478" stroke-width=".1" d="m42 340 11 10 4 13c2 5 0 10-1 15l-5 1c-1 3 2 7 5 6 5 0 6-8 11-8l13 5c5 4 6 12 13 13 2 9 0 18-6 24l-3-2c1-1 4-1 4-3v-10c0-3-3-4-5-6l-4-7-7 2-14 5c0-4-2-8-5-11l-2 4c-1 4-3 8-6 11l-1-30 7 2 3-4-2-12-7-7-3 2v-13Z"/>
  <path fill="#6c835b" stroke="#6c835b" stroke-width=".1" d="M569 354c2-6 9-7 14-8-1 25-3 51-6 76l-2 17h-1l-17-1c-5 1-8 5-12 8-4 4-9 4-14 7l-11 5-8 6-6-1 1-5-5 1-3-8 10-8v-7l2-1v6l21-7-7-1-2-2 6-2-3-4 20-9c-2-3-5-5-8-6l3-4-5-2 9-5-8-3 7-2h-6l-1-3 11-4-7-1 9-4 7-9 6-3-2-3c4-4 7-8 8-13m-12 45c-2 0-4 2-5 4 3 2 7 5 11 5 3-1 6-2 7-5 2-1 0-4-2-4h-11Z"/>
  <path fill="#667570" stroke="#667570" stroke-width=".1" d="m42 353 3-2 7 7 2 12-3 4-7-2-2-19Z"/>
  <path fill="#faa678" stroke="#faa678" stroke-width=".1" d="M218 353c5-1 11-2 16 2l-12 5-21 15-4-4c0-2 2-4 3-5 4-5 8-10 14-13h4Z"/>
  <path fill="#636956" stroke="#636956" stroke-width=".1" d="m556 359 13-5c-1 5-4 9-8 13l2 3-6 3-7 9-9 4 7 1-11 4 1 3h6l-7 2 8 3-9 5 5 2-3 4c3 1 6 3 8 6l-20 9 3 4-6 2 2 2 7 1-21 7v-7c4-5 8-11 15-13-2-1-6-2-7-4l2-8v-11l10-11c3-3 1-10 5-13l11-11v-3c3 0 6 1 9-1Z"/>
  <path fill="#88525e" stroke="#88525e" stroke-width=".1" d="M465 355c2 3 5 7 6 11-1 8-5 14-9 20l-13 23c-1 1-3 4-5 3l-9-7v-4c2-1 4-2 5-5 5-10 9-21 15-30 1-3 5-3 7-5l3-6Z"/>
  <path fill="#fea77a" stroke="#fea77a" stroke-width=".1" d="M168 371c8-7 20-11 31-7-2 2-3 4-3 7l4 5-8 7 7 8c5 5 9 11 16 13 2 2 6 1 9 0a265 265 0 0 1 62-23l8 3 27 10 28 7-13 10c-6 6-13 10-20 13-17 7-34 11-52 13-14 1-28 7-42 12l-9 4-5 8-6 3-7-5c-9-16-18-31-25-48l-11-25c2-5 5-11 9-15Z"/>
  <path fill="#d9c6c2" stroke="#d9c6c2" stroke-width=".1" d="M405 363c7 2 14 4 19 8-5 3-10 3-16 3l-3-11Z"/>
  <path fill="#bd735d" stroke="#bd735d" stroke-width=".1" d="M284 374c3-2 7-4 11-3 8 2 15 6 21 11 7 6 17 6 25 10 4 2 7 5 9 8l9-6c3-2 7-2 10-3l-1 3c7-7 18-10 27-12v5c5 0 9 0 13 2l1 6c-9-3-18-4-27-1-16 5-28 15-41 25l-30 21c-13 8-27 14-41 19-7 3-15 4-22 6h4c-5 2-10 1-15-1l2-2c-9 1-17 6-25 9-4 1-8 1-11-1-4-2-6-7-8-11l7 5 6-3 5-8 9-4c14-5 28-11 42-12 18-2 35-6 52-13 7-3 14-7 20-13l13-10-28-7-27-10-1-4h-17c-7 1-14 5-21 7l-19 9c-5 2-10 3-12 8-3 1-7 2-9 0-7-2-11-8-16-13 3 0 5-2 8-1l9 5c2 0 2 3 2 4l18-6 18-7c-8 1-15 4-23 7-3 2-7 3-11 2 4-4 11-6 17-9 7-4 16-4 24-6 7-3 15-3 23-6Z"/>
  <path fill="#c67d61" stroke="#c67d61" stroke-width=".1" d="m421 375 10-5v6l-14 2c-3-1-5-1-8 1l-1-4h13Z"/>
  <path fill="#68807c" stroke="#68807c" stroke-width=".1" d="M121 372c6 4 14 5 21 6l7 28-2 6-8 6-2 4c5 1 10 0 15-1l1 2-12 6c-4 2-7 4-11 3-7 0-12-4-19-4l-4 5c3 2 5 5 9 5l15-1c4 0 8 0 11-2l8-7 2 8c-3 9-5 17-3 26 2 8 12 12 17 18v8c-6 11-9 23-12 35l-13 3 5-7h-6l-3-4-12-3c-3-1-6-3-10-2s-8 4-12 7l2 2-6 1-1-2 5-5-2-8h7c-4-7-5-15-10-21-4 0-9 3-14 0-4-3-9-5-14-5l-6 3v5l-2 2-2-2-7 5c-2 2-5 1-7 1h-1v-4c5 0 11-2 14-7l1-10 3 1 2 4h9l8-5c5-3 9-8 12-13 4-4 8-8 10-13 1-5-5-8-6-13l3-13c1-5 5-8 7-12l5-12c5-7 7-16 8-24m-5 94-7 5 7 1 3 4 6 2 2-2c-3-3-7-5-8-9l3-10c-3 2-4 6-6 9Z"/>
  <path fill="#fea77b" stroke="#fea77b" stroke-width=".1" d="m417 378 14-2 2 19 1 33c0 2 0 5-2 7-1 3-4 4-6 6-6-1-12-4-18-3l-23 5c-19 2-37-4-56-6l8-6 16-15c4-2 7-6 9-10 10-6 20-12 32-12 7 0 14 2 20 4 0-7-3-13-5-19 3-2 5-2 8-1Z"/>
  <path fill="#f7a676" stroke="#f7a676" stroke-width=".1" d="m395 382 13-3c2 5 4 10 4 16l-4-6c-4-2-8-2-13-2v-5Z"/>
  <path fill="#502315" stroke="#502315" stroke-width=".1" d="M255 387c7-2 14-6 21-7h17l1 4-8-3a265 265 0 0 0-62 23c2-5 7-6 12-8l19-9Z"/>
  <path fill="#677772" stroke="#677772" stroke-width=".1" d="m51 391 2-4c3 3 5 7 5 11l14-5 7-2 4 7c2 2 5 3 5 6v10c0 2-3 2-4 3-4-7-13-10-21-9-7 1-12 5-18 8l9-7 9-6-7-3c-1-4-1-8-5-9Z"/>
  <path fill="#666263" stroke="#666263" stroke-width=".1" d="M51 391c4 1 4 5 5 9l7 3-9 6-9 7-1 1 1-15c3-3 5-7 6-11Z"/>
  <path fill="#8e6f68" stroke="#8e6f68" stroke-width=".1" d="M512 417c2-7 4-13 9-19v11l-2 8c1 2 5 3 7 4-7 2-11 8-15 13v-2l5-18-4 3Z"/>
  <path fill="#5b655d" stroke="#5b655d" stroke-width=".1" d="M557 399h11c2 0 4 3 2 4-1 3-4 4-7 5-4 0-8-3-11-5 1-2 3-4 5-4Z"/>
  <path fill="#686a75" stroke="#686a75" stroke-width=".1" d="m149 406 3 15c-5 1-10 2-15 1l2-4 8-6 2-6Z"/>
  <path fill="#cb7e64" stroke="#cb7e64" stroke-width=".1" d="M323 434c13-8 25-20 39-28-2 4-5 8-9 10l-16 15-8 6-6-3Z"/>
  <path fill="#70836b" stroke="#70836b" stroke-width=".1" d="M45 416c6-3 11-7 18-8l-8 10 1 2 1 3c-1 3-4 5-3 9 1 5 6 8 10 12l-5 2 4 3-20 1v-2c3-2 7-4 9-8 1-2-1-5-1-8l-7 9v-6c4-4 8-9 10-14l-6 7-3-5-1 10v-16l1-1Z"/>
  <path fill="#7f9c76" stroke="#7f9c76" stroke-width=".1" d="M56 420c3-3 7-8 12-7 6 0 10 5 15 8 3 3 8 1 12 0 2 3 1 6 1 9-1 7 2 14 1 20l-8 7-10-9-9-6c-3-2-5-6-8-7l-5-3v-9l-1-3Z"/>
  <path fill="#847f78" stroke="#847f78" stroke-width=".1" d="m457 421 12-3 12 3 12 5c5 4 12 5 18 6v3l-2 1c-5-2-12-3-17-7-4-3-9-4-14-6-6-2-12-2-18 0-3 4-1 10 0 14l-11 2-5 8c-3 1-7 0-10-1l1-2 7-1c4-2 6-5 9-8l2-1 4-13Z"/>
  <path fill="#595d52" stroke="#595d52" stroke-width=".1" d="m48 428 6-7c-2 5-6 10-10 14v-2l1-10 3 5Z"/>
  <path fill="#69817f" stroke="#69817f" stroke-width=".1" d="M460 423c6-2 12-2 18 0 5 2 10 3 14 6 5 4 12 5 17 7v7l-10 8v11l-3 7c-1 8 2 15 4 22l-4 2c-3-5-6-10-11-14-2-2-4-2-6-2l-2-1-7-4 6-2-7-4-4 5-15 1c-26 2-52 4-78 10l-19 4-4-5 1-4c4-3 10-4 13-8 1-3-1-4-2-6l-1-2c14 2 27 3 41 2h1c6 1 13 3 19 0 6-4 11-10 13-17 3 1 7 2 10 1l5-8 11-2c-1-4-3-10 0-14Z"/>
  <path fill="#a88780" stroke="#a88780" stroke-width=".1" d="M436 421c7 0 12 6 14 12l1 2c-3 3-5 6-9 8l-7 1 1-23Z"/>
  <path fill="#666d74" stroke="#666d74" stroke-width=".1" d="m141 429 12-6 1 8-2 5-2-8-8 7c-3 2-7 2-11 2l-15 1c-4 0-6-3-9-5l4-5c7 0 12 4 19 4 4 1 7-1 11-3Z"/>
  <path fill="#d58169" stroke="#d58169" stroke-width=".1" d="M432 435c2-2 2-5 2-7l-1 14-7-1c2-2 5-3 6-6Z"/>
  <path fill="#6b6e64" stroke="#6b6e64" stroke-width=".1" d="M51 432c0 3 2 6 1 8-2 4-6 6-9 8 0-2-1-5 1-7l7-9Z"/>
  <path fill="#bd725f" stroke="#bd725f" stroke-width=".1" d="m302 447 21-13 6 3c19 2 37 8 56 6l23-5c6-1 12 2 18 3l7 1c0 7-5 12-9 17-3 2-5 4-9 4h-14l-36-3-40-8c-6-1-12-3-18-2l-4-2-1-1Z"/>
  <path fill="#555f5a" stroke="#555f5a" stroke-width=".1" d="M545 446c4-3 7-7 12-8l17 1-2 27c-7 0-12 7-20 7l-12 2c-3 2-7 0-11-1h-11l-1-4-4-1c3-4 6-8 11-10 3-1 5-4 7-6 5-3 10-3 14-7Z"/>
  <path fill="#fafdfe" stroke="#fafdfe" stroke-width=".1" d="m280 457 22-10 1 1-5 13c-3 9-7 18-13 26-4 4-9 4-14 5h-18c-10 0-19-2-28-6-7-3-14-7-19-12 11 0 20-8 31-10 5 2 10 3 15 1 7 0 13-2 19-4h3l-6 8-10 15h1c3 0 6 0 8-3 6-7 12-14 13-24Z"/>
  <path fill="#616d5d" stroke="#616d5d" stroke-width=".1" d="M499 462v-11l3 8 5-1-1 5 6 1 8-6 11-5c-2 2-4 5-7 6-5 2-8 6-11 10l4 1 1 4-4 4 8 8-4 7-17 8-5-8 4-2c-2-7-5-14-4-22l3-7Z"/>
  <path fill="#68706e" stroke="#68706e" stroke-width=".1" d="M116 466c2-3 3-7 6-9l-3 10c1 4 5 6 8 9l-2 2-6-2-3-4-7-1 7-5Z"/>
  <path fill="#d5c3bf" stroke="#d5c3bf" stroke-width=".1" d="m271 461 9-4c-1 10-7 17-13 24-2 3-5 3-8 3 6-4 9-10 13-16l2-7h-3Z"/>
  <path fill="#fcfdfd" stroke="#fcfdfd" stroke-width=".1" d="M345 459h4l11 2 1 2v5c-3 3-7 4-10 6l-6-15Z"/>
  <path fill="#6b7769" stroke="#6b7769" stroke-width=".1" d="M67 462c2-2 4-1 7-1 0 3 2 5 5 6l-1 2 4 3-8 5h-9l-2-4-3-1v-2l7-8Z"/>
  <path fill="#648e85" stroke="#648e85" stroke-width=".1" d="m42 466 11-2c4-1 5 4 7 6v2l-1 10c-3 5-9 7-14 7l-3-23Z"/>
  <path fill="#6c865d" stroke="#6c865d" stroke-width=".1" d="M552 473c8 0 13-7 20-7l-3 18c-2 5-6 9-9 14-7 8-12 16-20 23-4 3-10 3-14 5l-16 8c0-5 0-10-3-13l-3-6c1-5-1-9-3-14l17-8 4-7-8-8 4-4h11c4 1 8 3 11 1l12-2Z"/>
  <path fill="#686972" stroke="#686972" stroke-width=".1" d="m465 471 4-5 7 4-6 2h-20l15-1Z"/>
  <path fill="#d7c1ba" stroke="#d7c1ba" stroke-width=".1" d="M160 471c11 0 20 6 30 9l10 6c-11-2-22-4-33-9l-7-6Z"/>
  <path fill="#23140e" stroke="#23140e" stroke-width=".1" d="M372 482c26-6 52-8 78-10h20l7 4-12-2-42 2c-23 2-46 7-69 11 7 20 11 42 15 63-3-6-3-13-5-20l-8-31c-2-6-3-11-7-16v-2l4 5 19-4Z"/>
  <path fill="#ffe5cf" stroke="#ffe5cf" stroke-width=".1" d="m423 476 42-2 12 2 2 1c13 9 20 24 25 38l3 6c0 5 1 9 3 13-9 3-18 8-28 9-12 2-25 2-37 2l9-15-1-6c-3 0-6 1-7 3l-11 14c-7-2-15-1-22 1l-33 10-10 1-1-3c-4-21-8-43-15-63 23-4 46-9 69-11Z"/>
  <path fill="#698a7f" stroke="#698a7f" stroke-width=".1" d="M70 479c5 0 10 2 14 5 5 3 10 0 14 0 5 6 6 14 10 21h-7l2 8a1200 1200 0 0 0-4 7l6-1 14 5c3 1 6 0 8 2l10 9-41-5c-6 0-11-3-16-5 4-4 11-8 10-14-2-6-7-9-11-13l-9 1 1-4-11-1 2-5 2-2v-5l6-3Z"/>
  <path fill="#785756" stroke="#785756" stroke-width=".1" d="M349 483c4 5 5 10 7 16l8 31c2 7 2 14 5 20l1 3c-19 0-37 2-56 0l-42-5c-19-2-39-2-58-3l-20-2v-15c1-6 3-12 2-19v-1l29 7c15 4 31 4 47 4 9 0 18-1 26-4 9-2 17-5 25-9l12-11 14-12Z"/>
  <path fill="#525969" stroke="#525969" stroke-width=".1" d="m53 492 7-5-5 8c-2 2-2 5-2 7l10-6 1 9c4-1 8-3 12-2 2 2 3 4 6 5 2 2 5 3 4 7s-5 6-9 8c-14-4-28-15-31-30 2 0 5 1 7-1Z"/>
  <path fill="#5f7a7d" stroke="#5f7a7d" stroke-width=".1" d="m60 487 2 2-2 5 11 1-1 4 9-1c4 4 9 7 11 13 1 6-6 10-10 14l-3-2c4-2 8-4 9-8s-2-5-4-7c-3-1-4-3-6-5-4-1-8 1-12 2l-1-9-10 6c0-2 0-5 2-7l5-8Z"/>
  <path fill="#372823" stroke="#372823" stroke-width=".1" d="M154 523c3-12 6-24 12-35l1 2 1 1-4 9c-5 12-8 25-11 38l-2-1 3-14Z"/>
  <path fill="#6e7e6e" stroke="#6e7e6e" stroke-width=".1" d="M115 510c4-1 7 1 10 2l12 3 3 4h6l-5 7 13-3-3 14c-5 0-9 0-14-2l-10-9c-2-2-5-1-8-2l-14-5-2-2c4-3 8-6 12-7Z"/>
  <path fill="#462b24" stroke="#462b24" stroke-width=".1" d="M196 509c1 7-1 13-2 19v15h-2v-14l4-20Z"/>
  <path fill="#575345" stroke="#575345" stroke-width=".1" d="M507 521c3 3 3 8 3 13-2-4-3-8-3-13Z"/>
  <path fill="#cfb8ac" stroke="#cfb8ac" stroke-width=".1" d="M438 541c3-6 8-13 14-15-1 7-6 13-10 19l-2 1-2-5Z"/>
</svg>
